<svg xmlns="http://www.w3.org/2000/svg" viewBox="0 0 23.22 35.67"><defs><style>.cls-1,.cls-2{fill:none;stroke:#0db09b;stroke-linecap:round;}.cls-1{stroke-miterlimit:10;}.cls-2{stroke-linejoin:round;}</style></defs><title>actividadPartidaria</title><g id="Layer_2" data-name="Layer 2"><g id="profe"><path class="cls-1" d="M19.73,17.12V10.38a2.46,2.46,0,0,0-2.47-2.47H9.41"/><line class="cls-1" x1="16.87" y1="17.12" x2="16.87" y2="13.24"/><line class="cls-1" x1="9.81" y1="17.12" x2="9.81" y2="11.42"/><circle class="cls-2" cx="13.34" cy="3.17" r="2.67"/><path class="cls-1" d="M1.83,1.73A7.74,7.74,0,0,0,9.41,7.91"/><path class="cls-1" d="M.5,6.25a10.64,10.64,0,0,0,9,5.17"/><rect class="cls-1" x="3.72" y="17.12" width="19" height="4.52"/><polyline class="cls-1" points="20 21.64 20 35.17 6.43 35.17 6.43 21.64"/><polygon class="cls-1" points="13.22 24.21 11.12 25.73 11.92 28.2 14.52 28.2 15.32 25.73 13.22 24.21"/></g></g></svg>