<svg xmlns="http://www.w3.org/2000/svg" viewBox="0 0 15.33 22.66"><defs><style>.cls-1{fill:none;stroke:#0db09b;stroke-linecap:round;stroke-linejoin:round;}</style></defs><title>cucarda_small</title><g id="Layer_2" data-name="Layer 2"><g id="profe"><polygon class="cls-1" points="7.66 4.58 8.39 6.81 10.73 6.81 8.83 8.19 9.56 10.41 7.66 9.04 5.77 10.41 6.49 8.19 4.6 6.81 6.94 6.81 7.66 4.58"/><circle class="cls-1" cx="7.66" cy="7.85" r="5.09"/><polyline class="cls-1" points="5 14.31 3.18 19.72 5.24 19 6.45 20.82 8.27 15.41"/><polyline class="cls-1" points="9.93 14.39 12.15 21.06 10.09 20.34 8.88 22.16 7.5 18.02"/><polygon class="cls-1" points="7.66 0.5 9.13 1.42 10.85 1.23 11.78 2.69 13.41 3.27 13.61 4.99 14.83 6.21 14.26 7.85 14.83 9.48 13.61 10.71 13.41 12.43 11.78 13 10.85 14.47 9.13 14.28 7.66 15.19 6.2 14.28 4.47 14.47 3.55 13 1.92 12.43 1.72 10.71 0.5 9.48 1.07 7.85 0.5 6.21 1.72 4.99 1.92 3.27 3.55 2.69 4.47 1.23 6.2 1.42 7.66 0.5"/></g></g></svg>