<svg xmlns="http://www.w3.org/2000/svg" viewBox="0 0 20.24 30.09"><defs><style>.cls-1{fill:none;stroke:#0db09b;stroke-linecap:round;stroke-linejoin:round;}</style></defs><title>cucarda_big</title><g id="Layer_2" data-name="Layer 2"><g id="profe"><polygon class="cls-1" points="10.12 5.98 11.09 8.97 14.24 8.97 11.69 10.82 12.66 13.82 10.12 11.97 7.58 13.82 8.55 10.82 6 8.97 9.15 8.97 10.12 5.98"/><circle class="cls-1" cx="10.12" cy="10.37" r="6.84"/><polyline class="cls-1" points="6.54 19.05 4.09 26.31 6.86 25.35 8.49 27.79 10.93 20.53"/><polyline class="cls-1" points="13.17 19.15 16.15 28.11 13.38 27.15 11.75 29.59 9.9 24.03"/><polygon class="cls-1" points="10.12 0.5 12.09 1.73 14.4 1.48 15.64 3.44 17.84 4.21 18.1 6.52 19.74 8.17 18.98 10.37 19.74 12.56 18.1 14.21 17.84 16.52 15.64 17.29 14.4 19.26 12.09 19 10.12 20.23 8.15 19 5.84 19.26 4.6 17.29 2.4 16.52 2.14 14.21 0.5 12.56 1.26 10.37 0.5 8.17 2.14 6.52 2.4 4.21 4.6 3.44 5.84 1.48 8.15 1.73 10.12 0.5"/></g></g></svg>