<svg xmlns="http://www.w3.org/2000/svg" viewBox="0 0 21.32 32.7"><defs><style>.cls-1{fill:none;stroke:#0db09b;stroke-linecap:round;stroke-linejoin:round;}</style></defs><title>premioGrande</title><g id="Layer_2" data-name="Layer 2"><g id="profe"><path class="cls-1" d="M4.42.5H16.9a0,0,0,0,1,0,0v9a6.24,6.24,0,0,1-6.24,6.24h0A6.24,6.24,0,0,1,4.42,9.53V.5a0,0,0,0,1,0,0Z"/><path class="cls-1" d="M7.21,11.86A4.11,4.11,0,0,1,6.5,9.53V6.72"/><path class="cls-1" d="M9.82,13.61A4.07,4.07,0,0,1,8.34,13"/><path class="cls-1" d="M4.42.5H.5V4.22A3.92,3.92,0,0,0,4.42,8.14h0"/><path class="cls-1" d="M16.9.5h3.92V4.22A3.92,3.92,0,0,1,16.9,8.14h0"/><line class="cls-1" x1="11.45" y1="15.78" x2="11.45" y2="20.49"/><line class="cls-1" x1="9.87" y1="15.78" x2="9.87" y2="20.49"/><polyline class="cls-1" points="8.66 29.69 18.04 29.69 18.04 32.2 3.28 32.2 3.28 29.69 6.5 29.69"/><polyline class="cls-1" points="4.97 29.63 4.97 23.43 11.02 23.43"/><polyline class="cls-1" points="13.09 23.43 16.35 23.43 16.35 29.63"/><path class="cls-1" d="M15.08,23.43a5.11,5.11,0,0,0-8.84,0"/><line class="cls-1" x1="8.24" y1="26.56" x2="13.09" y2="26.56"/></g></g></svg>