<svg xmlns="http://www.w3.org/2000/svg" viewBox="0 0 21.32 27.53"><defs><style>.cls-1{fill:none;stroke:#0db09b;stroke-linecap:round;stroke-linejoin:round;}</style></defs><title>premioChico</title><g id="Layer_2" data-name="Layer 2"><g id="profe"><path class="cls-1" d="M10.66,14.68h0A6.24,6.24,0,0,1,4.42,8.44V.5H16.9V8.44A6.24,6.24,0,0,1,10.66,14.68Z"/><path class="cls-1" d="M7.21,10.76A4.1,4.1,0,0,1,6.5,8.44V5.62"/><path class="cls-1" d="M9.82,12.51a4.23,4.23,0,0,1-1.48-.62"/><path class="cls-1" d="M4.42,1.76H.5V3.12A3.91,3.91,0,0,0,4.42,7h0"/><path class="cls-1" d="M16.9,1.76h3.92V3.12A3.91,3.91,0,0,1,16.9,7h0"/><line class="cls-1" x1="10.66" y1="14.68" x2="10.66" y2="19.39"/><polyline class="cls-1" points="8.66 24.52 18.04 24.52 18.04 27.03 3.28 27.03 3.28 24.52 6.5 24.52"/><polyline class="cls-1" points="4.97 24.46 4.97 22.33 11.02 22.33"/><polyline class="cls-1" points="13.09 22.33 16.35 22.33 16.35 24.46"/><path class="cls-1" d="M14.08,22a3.94,3.94,0,0,0-6.83,0"/></g></g></svg>