<svg xmlns="http://www.w3.org/2000/svg" viewBox="0 0 38.33 34.5"><defs><style>.cls-1,.cls-2{fill:none;stroke:#0db09b;stroke-linecap:round;}.cls-1{stroke-miterlimit:10;}.cls-2{stroke-linejoin:round;}</style></defs><title>sectorPublico</title><g id="Layer_2" data-name="Layer 2"><g id="profe"><path class="cls-1" d="M26.11,18.09V11.23a2.68,2.68,0,0,0-2.68-2.68H14.9a2.68,2.68,0,0,0-2.68,2.68v6.86"/><line class="cls-1" x1="23" y1="18.09" x2="23" y2="12.59"/><line class="cls-1" x1="15.33" y1="18.09" x2="15.33" y2="12.59"/><circle class="cls-1" cx="19.17" cy="3.4" r="2.9"/><rect class="cls-2" x="0.5" y="18.09" width="37.33" height="3.71"/><rect class="cls-2" x="2.92" y="21.79" width="32.5" height="12.21"/><polygon class="cls-2" points="8.66 14 4.79 14 5.23 18.09 8.23 18.09 8.66 14"/><path class="cls-2" d="M6.58,8.55a1.13,1.13,0,0,1,0,1.58l-.34.34a1.12,1.12,0,0,0,0,1.59l.28.29a1.11,1.11,0,0,1,0,1.58"/></g></g></svg>