<svg xmlns="http://www.w3.org/2000/svg" viewBox="0 0 36.75 32.05"><defs><style>.cls-1{fill:none;stroke:#0db09b;stroke-linecap:round;stroke-linejoin:round;}</style></defs><title>titulos</title><g id="Layer_2" data-name="Layer 2"><g id="profe"><polyline class="cls-1" points="10.76 24.17 0.5 24.17 0.5 0.5 36.25 0.5 36.25 24.17 26.01 24.17"/><path class="cls-1" d="M9.13,21.79H5.75a2.57,2.57,0,0,0-2.56-2.57V5.94A2.56,2.56,0,0,0,5.75,3.38H31a2.56,2.56,0,0,0,2.56,2.56V19.22A2.57,2.57,0,0,0,31,21.79H28"/><line class="cls-1" x1="11.71" y1="7.26" x2="25.04" y2="7.26"/><line class="cls-1" x1="7.77" y1="11.2" x2="28.98" y2="11.2"/><line class="cls-1" x1="7.77" y1="14.65" x2="28.98" y2="14.65"/><polygon class="cls-1" points="17.07 17.6 18.44 16.54 19.78 17.63 21.51 17.58 21.96 19.25 23.38 20.23 22.76 21.84 23.34 23.47 21.89 24.41 21.4 26.07 19.68 25.98 18.31 27.03 16.97 25.94 15.24 25.99 14.79 24.32 13.37 23.34 13.99 21.73 13.41 20.11 14.86 19.16 15.35 17.51 17.07 17.6"/><polyline class="cls-1" points="20.59 26.38 20.59 31.55 18.36 30.75 16.16 31.55 16.16 26.38"/><circle class="cls-1" cx="18.37" cy="21.79" r="2.12"/></g></g></svg>