<svg xmlns="http://www.w3.org/2000/svg" xmlns:xlink="http://www.w3.org/1999/xlink" width="271.55" height="211.13" viewBox="0 0 271.55 211.13">
  <defs>
    <style>
      .cls-1 {
        isolation: isolate;
      }

      .cls-2 {
        fill: #7d6f67;
      }

      .cls-3 {
        mix-blend-mode: multiply;
      }

      .cls-4 {
        fill: url(#linear-gradient);
      }

      .cls-5 {
        fill: url(#linear-gradient-2);
      }

      .cls-6 {
        fill: url(#linear-gradient-3);
      }

      .cls-7 {
        fill: url(#linear-gradient-4);
      }

      .cls-8 {
        fill: url(#linear-gradient-5);
      }

      .cls-9 {
        fill: url(#linear-gradient-6);
      }

      .cls-10 {
        fill: url(#linear-gradient-7);
      }

      .cls-11 {
        fill: url(#linear-gradient-8);
      }

      .cls-12 {
        fill: url(#linear-gradient-9);
      }

      .cls-13 {
        fill: url(#linear-gradient-10);
      }

      .cls-14 {
        fill: url(#linear-gradient-11);
      }

      .cls-15 {
        fill: none;
      }
    </style>
    <linearGradient id="linear-gradient" x1="88.35" y1="199.58" x2="91.06" y2="-15.4" gradientUnits="userSpaceOnUse">
      <stop offset="0" stop-color="#696560"/>
      <stop offset="0.09" stop-color="#846b4f"/>
      <stop offset="0.25" stop-color="#a97237"/>
      <stop offset="0.4" stop-color="#c67825"/>
      <stop offset="0.55" stop-color="#da7d18"/>
      <stop offset="0.7" stop-color="#e77f10"/>
      <stop offset="0.85" stop-color="#eb800d"/>
    </linearGradient>
    <linearGradient id="linear-gradient-2" x1="95.61" y1="199.67" x2="98.32" y2="-15.31" xlink:href="#linear-gradient"/>
    <linearGradient id="linear-gradient-3" x1="47.64" y1="199.07" x2="50.35" y2="-15.91" gradientTransform="translate(45.11 -18.33) rotate(37.66)" xlink:href="#linear-gradient"/>
    <linearGradient id="linear-gradient-4" x1="69.46" y1="199.34" x2="72.17" y2="-15.64" xlink:href="#linear-gradient"/>
    <linearGradient id="linear-gradient-5" x1="37.16" y1="216.17" x2="39.88" y2="1.19" gradientTransform="translate(69.86 -18.82) rotate(22.49)" xlink:href="#linear-gradient"/>
    <linearGradient id="linear-gradient-6" x1="60.12" y1="216.46" x2="62.83" y2="1.48" gradientTransform="matrix(1, 0.02, -0.02, 1, 5.22, -18.28)" xlink:href="#linear-gradient"/>
    <linearGradient id="linear-gradient-7" x1="74.68" y1="199.39" x2="77.4" y2="-15.59" gradientTransform="translate(183.46 17.4) rotate(54.51)" xlink:href="#linear-gradient"/>
    <linearGradient id="linear-gradient-8" x1="85.45" y1="199.53" x2="88.16" y2="-15.45" xlink:href="#linear-gradient"/>
    <linearGradient id="linear-gradient-9" x1="27.87" y1="200.59" x2="30.59" y2="-14.39" gradientTransform="translate(120.73 44.72) rotate(74.26)" xlink:href="#linear-gradient"/>
    <linearGradient id="linear-gradient-10" x1="49.76" y1="200.86" x2="52.47" y2="-14.12" gradientTransform="translate(1.75 -2.31) rotate(0.55)" xlink:href="#linear-gradient"/>
    <linearGradient id="linear-gradient-11" x1="28.24" y1="200.59" x2="30.95" y2="-14.39" gradientTransform="translate(132.99 71.24) rotate(90)" xlink:href="#linear-gradient"/>
  </defs>
  <title>DL_LOGO_Colorv01</title>
  <g class="cls-1">
    <g id="Layer_5" data-name="Layer 5">
      <g>
        <g>
          <g>
            <path class="cls-2" d="M106.86,92.34c0-6.05-4.42-10-11.25-10H91.25v20.13h4.29C102.52,102.51,106.86,98.62,106.86,92.34Zm-12-7.06c4.06,0,8.9,1.24,8.9,7.17s-4.84,7.17-8.9,7.17h-.51V85.28Z"/>
            <rect class="cls-2" x="110.88" y="82.38" width="3.1" height="20.13"/>
            <path class="cls-2" d="M122.39,94.28h.49l5.73,8.23h3.78L126.18,94a5.62,5.62,0,0,0,4.41-5.69,5.7,5.7,0,0,0-2.73-4.94,10.63,10.63,0,0,0-5.3-.95h-3.28v20.13h3.1Zm5.25-5.91c0,2.26-1.44,3.22-4.82,3.22h-.43V85.23h.31C126.12,85.23,127.65,86.2,127.65,88.37Z"/>
            <polygon class="cls-2" points="135.64 102.51 146.77 102.51 146.77 99.61 138.75 99.61 138.75 92.94 146.54 92.94 146.54 90.04 138.75 90.04 138.75 85.28 146.77 85.28 146.77 82.38 135.64 82.38 135.64 102.51"/>
            <path class="cls-2" d="M160.82,102.92a10.89,10.89,0,0,0,5.28-1.41l.17-.1V97.6l-.57.5a7.48,7.48,0,1,1-4.91-13.23,7.57,7.57,0,0,1,4.91,1.82l.56.5V83.44l-.16-.1A9.68,9.68,0,0,0,161,82a10.48,10.48,0,1,0-.21,21Z"/>
            <polygon class="cls-2" points="173.64 102.51 176.75 102.51 176.75 85.28 181.36 85.28 181.36 82.38 169.03 82.38 169.03 85.28 173.64 85.28 173.64 102.51"/>
            <path class="cls-2" d="M194.1,102.92a10.39,10.39,0,0,0,10.53-10.48,10.53,10.53,0,0,0-21.06,0A10.39,10.39,0,0,0,194.1,102.92Zm0-18a7.31,7.31,0,0,1,7.42,7.53,7.43,7.43,0,1,1-14.85,0A7.31,7.31,0,0,1,194.1,84.92Z"/>
            <path class="cls-2" d="M221.75,102.51,215.54,94A5.62,5.62,0,0,0,220,88.27a5.7,5.7,0,0,0-2.73-4.94,10.63,10.63,0,0,0-5.3-.95h-3.28v20.13h3.1V94.28h.49l5.73,8.23ZM217,88.37c0,2.26-1.44,3.22-4.82,3.22h-.43V85.23h.31C215.48,85.23,217,86.2,217,88.37Z"/>
            <rect class="cls-2" x="224.93" y="82.38" width="3.1" height="20.13"/>
            <path class="cls-2" d="M242.5,102.92A10.39,10.39,0,0,0,253,92.45a10.53,10.53,0,0,0-21.06,0A10.39,10.39,0,0,0,242.5,102.92Zm0-18a7.31,7.31,0,0,1,7.42,7.53,7.43,7.43,0,1,1-14.85,0A7.31,7.31,0,0,1,242.5,84.92Z"/>
            <polygon class="cls-2" points="94.56 112.81 91.45 112.81 91.45 132.94 100.46 132.94 100.46 130.04 94.56 130.04 94.56 112.81"/>
            <polygon class="cls-2" points="103.4 132.94 114.52 132.94 114.52 130.04 106.5 130.04 106.5 123.37 114.29 123.37 114.29 120.47 106.5 120.47 106.5 115.71 114.52 115.71 114.52 112.81 103.4 112.81 103.4 132.94"/>
            <path class="cls-2" d="M128.86,125.36h5c-.32,2.9-3.4,5.1-6,5.1-3.85,0-7.22-3.55-7.22-7.6a7.33,7.33,0,0,1,13.26-4.52l.23.31,2.21-2.11-.19-.24a10.47,10.47,0,1,0-8.44,17.06c5.53,0,9.55-4.11,9.55-9.78v-1.11h-8.39Z"/>
            <rect class="cls-2" x="140.91" y="112.81" width="3.1" height="20.13"/>
            <path class="cls-2" d="M155.81,120.78l-1.4-.54c-1.68-.64-2.49-1.45-2.49-2.47,0-1.49,1.51-2.42,2.91-2.42a3,3,0,0,1,2.83,1.67l.17.29,2.51-1.51-.16-.29a5.86,5.86,0,0,0-5.3-3.11c-2.94,0-6.07,1.88-6.07,5.37,0,2.93,2.24,4.29,4.44,5.24l1.34.57c1.94.81,3.14,1.65,3.14,3.37a3.32,3.32,0,0,1-3.25,3.45,3.48,3.48,0,0,1-2.5-1,3.23,3.23,0,0,1-.92-2.34v-.42l-3.17.67,0,.31a6.43,6.43,0,0,0,6.35,5.74,6.34,6.34,0,0,0,6.56-6.4C160.85,123.26,158.31,121.76,155.81,120.78Z"/>
            <polygon class="cls-2" points="167.95 112.81 164.85 112.81 164.85 132.94 173.86 132.94 173.86 130.04 167.95 130.04 167.95 112.81"/>
            <path class="cls-2" d="M174.54,132.94h3.35l2.22-4.88h8.49l2.22,4.88h3.35l-9.81-21.43Zm9.81-14.46,2.94,6.68h-5.87Z"/>
            <polygon class="cls-2" points="193.07 115.71 197.69 115.71 197.69 132.94 200.79 132.94 200.79 115.71 205.41 115.71 205.41 112.81 193.07 112.81 193.07 115.71"/>
            <rect class="cls-2" x="208.57" y="112.81" width="3.1" height="20.13"/>
            <polygon class="cls-2" points="223.41 126.64 217.83 112.81 214.44 112.81 223.41 134.52 232.35 112.81 228.96 112.81 223.41 126.64"/>
            <path class="cls-2" d="M244.33,112.4a10.51,10.51,0,0,0-10.53,10.48,10.53,10.53,0,0,0,21.06,0A10.51,10.51,0,0,0,244.33,112.4Zm0,18a7.49,7.49,0,0,1-7.42-7.53,7.43,7.43,0,1,1,14.85,0A7.49,7.49,0,0,1,244.33,130.4Z"/>
          </g>
          <g class="cls-3">
            <circle class="cls-4" cx="90.51" cy="27.99" r="9.43"/>
            <path class="cls-5" d="M118.19,52.15a22,22,0,0,0-41.56,9.59Z"/>
          </g>
          <g class="cls-3">
            <circle class="cls-6" cx="49.43" cy="56.96" r="9.43" transform="translate(-24.5 42.08) rotate(-37.66)"/>
            <path class="cls-7" d="M86.52,58.13A22,22,0,0,0,60.2,91.69Z"/>
          </g>
          <g class="cls-3">
            <circle class="cls-8" cx="38.98" cy="154.36" r="9.43" transform="translate(-53.13 24.5) rotate(-21.17)"/>
            <path class="cls-9" d="M55.42,118A22,22,0,0,0,76,155.35Z"/>
          </g>
          <g class="cls-3">
            <circle class="cls-10" cx="74.84" cy="186.78" r="9.43" transform="translate(-120.69 139.27) rotate(-54.51)"/>
            <path class="cls-11" d="M66.33,151a22,22,0,0,0,39.41,16.32Z"/>
          </g>
          <g class="cls-3">
            <circle class="cls-12" cx="29.87" cy="100.57" r="9.43" transform="translate(-75.04 101.04) rotate(-73.71)"/>
            <path class="cls-13" d="M60.82,80.78a22,22,0,0,0-2.45,42.58Z"/>
            <circle class="cls-14" cx="30.24" cy="100.72" r="9.5" transform="matrix(0.01, -1, 1, 0.01, -70.76, 129.99)"/>
          </g>
        </g>
        <rect class="cls-15" width="271.55" height="211.13"/>
      </g>
    </g>
  </g>
</svg>
