<svg text-anchor="middle" style="width: 70%; height: auto; background: rgb(255, 255, 255); font: 14px sans-serif;" viewBox="84.20355224609375 2.9619674682617188 796.8101196289062 882.7472534179688" xmlns="http://www.w3.org/2000/svg" xmlns:xlink="http://www.w3.org/1999/xlink"><g transform="translate(132.12542806714833,537.8243546121137)" fill="silver"><path id="O-circle-38" d="M-5.521936185306101e-15,30.060020511768172A30.060020511768172,30.060020511768172,0,1,1,5.521936185306101e-15,-30.060020511768172A30.060020511768172,30.060020511768172,0,1,1,-5.521936185306101e-15,30.060020511768172Z"/><text fill="#000"><tspan x="0" y="-9.1">Administración</tspan><tspan x="0" y="3.9000000000000004">Pública</tspan><tspan x="0" y="16.900000000000002" font-weight="300" fill-opacity="0.5">3</tspan></text></g><g transform="translate(134.70100763960824,345.3729837507405)" fill="silver"><path id="O-circle-39" d="M-6.376182686068825e-15,34.710321868630054A34.710321868630054,34.710321868630054,0,1,1,6.376182686068825e-15,-34.710321868630054A34.710321868630054,34.710321868630054,0,1,1,-6.376182686068825e-15,34.710321868630054Z"/><text fill="#000"><tspan x="0" y="-2.5999999999999996">Arquitectura</tspan><tspan x="0" y="10.4" font-weight="300" fill-opacity="0.5">4</tspan></text></g><g transform="translate(701.6799612020782,785.2108102254215)" fill="silver"><path id="O-circle-40" d="M-7.809197043818639e-15,42.51128869295597A42.51128869295597,42.51128869295597,0,1,1,7.809197043818639e-15,-42.51128869295597A42.51128869295597,42.51128869295597,0,1,1,-7.809197043818639e-15,42.51128869295597Z"/><text fill="#000"><tspan x="0" y="-2.5999999999999996">Sociología</tspan><tspan x="0" y="10.4" font-weight="300" fill-opacity="0.5">6</tspan></text></g><g transform="translate(399.2632604067509,838.7917784307656)" fill="silver"><path id="O-circle-41" d="M-8.43489685062697e-15,45.91743979570095A45.91743979570095,45.91743979570095,0,1,1,8.43489685062697e-15,-45.91743979570095A45.91743979570095,45.91743979570095,0,1,1,-8.43489685062697e-15,45.91743979570095Z"/><text fill="#000"><tspan x="0" y="-9.1">Relaciones</tspan><tspan x="0" y="3.9000000000000004">Internacionales</tspan><tspan x="0" y="16.900000000000002" font-weight="300" fill-opacity="0.5">7</tspan></text></g><g transform="translate(833.8730446547763,571.7679070336733)" fill="silver"><path id="O-circle-42" d="M-8.43489685062697e-15,45.91743979570095A45.91743979570095,45.91743979570095,0,1,1,8.43489685062697e-15,-45.91743979570095A45.91743979570095,45.91743979570095,0,1,1,-8.43489685062697e-15,45.91743979570095Z"/><text fill="#000"><tspan x="0" y="-9.1">Comercio y</tspan><tspan x="0" y="3.9000000000000004">Mercadotecnia</tspan><tspan x="0" y="16.900000000000002" font-weight="300" fill-opacity="0.5">7</tspan></text></g><g transform="translate(631.2290502563125,118.0527780597846)" fill="silver"><path id="O-circle-43" d="M-8.43489685062697e-15,45.91743979570095A45.91743979570095,45.91743979570095,0,1,1,8.43489685062697e-15,-45.91743979570095A45.91743979570095,45.91743979570095,0,1,1,-8.43489685062697e-15,45.91743979570095Z"/><text fill="#000"><tspan x="0" y="-9.1">Comercio y</tspan><tspan x="0" y="3.9000000000000004">Mercadotecnia</tspan><tspan x="0" y="16.900000000000002" font-weight="300" fill-opacity="0.5">7</tspan></text></g><g transform="translate(824.2432387408785,306.7270915221786)" fill="silver"><path id="O-circle-44" d="M-9.564274029103238e-15,52.065482802945084A52.065482802945084,52.065482802945084,0,1,1,9.564274029103238e-15,-52.065482802945084A52.065482802945084,52.065482802945084,0,1,1,-9.564274029103238e-15,52.065482802945084Z"/><text fill="#000"><tspan x="0" y="-2.5999999999999996">No tiene</tspan><tspan x="0" y="10.4" font-weight="300" fill-opacity="0.5">9</tspan></text></g><g transform="translate(480.57610958552107,68.89903582909625)" fill="silver"><path id="O-circle-45" d="M-1.1928745523374766e-14,64.93706610853036A64.93706610853036,64.93706610853036,0,1,1,1.1928745523374766e-14,-64.93706610853036A64.93706610853036,64.93706610853036,0,1,1,-1.1928745523374766e-14,64.93706610853036Z"/><text fill="#000"><tspan x="0" y="-2.5999999999999996">Psicología</tspan><tspan x="0" y="10.4" font-weight="300" fill-opacity="0.5">14</tspan></text></g><g transform="translate(155.29255621580683,637.595794061743)" fill="silver"><path id="O-circle-46" d="M-1.275236537213765e-14,69.42064373726011A69.42064373726011,69.42064373726011,0,1,1,1.275236537213765e-14,-69.42064373726011A69.42064373726011,69.42064373726011,0,1,1,-1.275236537213765e-14,69.42064373726011Z"/><text fill="#000"><tspan x="0" y="-2.5999999999999996">Medicina</tspan><tspan x="0" y="10.4" font-weight="300" fill-opacity="0.5">16</tspan></text></g><g transform="translate(172.79960779396816,238.6654468537398)" fill="silver"><path id="O-circle-47" d="M-1.389656798706387e-14,75.64939266156415A75.64939266156415,75.64939266156415,0,1,1,1.389656798706387e-14,-75.64939266156415A75.64939266156415,75.64939266156415,0,1,1,-1.389656798706387e-14,75.64939266156415Z"/><text fill="#000"><tspan x="0" y="-2.5999999999999996">Comunicación</tspan><tspan x="0" y="10.4" font-weight="300" fill-opacity="0.5">19</tspan></text></g><g transform="translate(752.3363854654272,670.9484735404734)" fill="silver"><path id="O-circle-48" d="M-1.4609669901888618e-14,79.53133867963912A79.53133867963912,79.53133867963912,0,1,1,1.4609669901888618e-14,-79.53133867963912A79.53133867963912,79.53133867963912,0,1,1,-1.4609669901888618e-14,79.53133867963912Z"/><text fill="#000"><tspan x="0" y="-9.1">Ciencias</tspan><tspan x="0" y="3.9000000000000004">Políticas</tspan><tspan x="0" y="16.900000000000002" font-weight="300" fill-opacity="0.5">21</tspan></text></g><g transform="translate(720.2323623422885,215.66176914841608)" fill="silver"><path id="O-circle-49" d="M-1.528954896212482e-14,83.23242790095343A83.23242790095343,83.23242790095343,0,1,1,1.528954896212482e-14,-83.23242790095343A83.23242790095343,83.23242790095343,0,1,1,-1.528954896212482e-14,83.23242790095343Z"/><text fill="#000"><tspan x="0" y="-2.5999999999999996">Economía</tspan><tspan x="0" y="10.4" font-weight="300" fill-opacity="0.5">23</tspan></text></g><g transform="translate(295.66086846878943,734.451994255675)" fill="silver"><path id="O-circle-50" d="M-1.8034568061614086e-14,98.17561588190411A98.17561588190411,98.17561588190411,0,1,1,1.8034568061614086e-14,-98.17561588190411A98.17561588190411,98.17561588190411,0,1,1,-1.8034568061614086e-14,98.17561588190411Z"/><text fill="#000"><tspan x="0" y="-2.5999999999999996">Ingenieria</tspan><tspan x="0" y="10.4" font-weight="300" fill-opacity="0.5">32</tspan></text></g><g transform="translate(335.0781844665817,157.89323289725723)" fill="silver"><path id="O-circle-51" d="M-1.8861002741200792e-14,102.67451673594138A102.67451673594138,102.67451673594138,0,1,1,1.8861002741200792e-14,-102.67451673594138A102.67451673594138,102.67451673594138,0,1,1,-1.8861002741200792e-14,102.67451673594138Z"/><text fill="#000"><tspan x="0" y="-2.5999999999999996">Otras</tspan><tspan x="0" y="10.4" font-weight="300" fill-opacity="0.5">35</tspan></text></g><g transform="translate(530.7551123181534,233.43054252838945)" fill="silver"><path id="O-circle-52" d="M-1.9128548058206477e-14,104.13096560589017A104.13096560589017,104.13096560589017,0,1,1,1.9128548058206477e-14,-104.13096560589017A104.13096560589017,104.13096560589017,0,1,1,-1.9128548058206477e-14,104.13096560589017Z"/><text fill="#000"><tspan x="0" y="-2.5999999999999996">Docencia</tspan><tspan x="0" y="10.4" font-weight="300" fill-opacity="0.5">36</tspan></text></g><g transform="translate(534.1943677421477,708.3066932639387)" fill="silver"><path id="O-circle-53" d="M-2.5504730744275297e-14,138.8412874745202A138.8412874745202,138.8412874745202,0,1,1,2.5504730744275297e-14,-138.8412874745202A138.8412874745202,138.8412874745202,0,1,1,-2.5504730744275297e-14,138.8412874745202Z"/><text fill="#000"><tspan x="0" y="-9.1">Administración</tspan><tspan x="0" y="3.9000000000000004">y Contaduría</tspan><tspan x="0" y="16.900000000000002" font-weight="300" fill-opacity="0.5">64</tspan></text></g><g transform="translate(674.0549495631376,449.6166590144359)" fill="silver"><path id="O-circle-54" d="M-2.7975387998880097e-14,152.29091913607337A152.29091913607337,152.29091913607337,0,1,1,2.7975387998880097e-14,-152.29091913607337A152.29091913607337,152.29091913607337,0,1,1,-2.7975387998880097e-14,152.29091913607337Z"/><text fill="#000"><tspan x="0" y="-9.1">Sin</tspan><tspan x="0" y="3.9000000000000004">datos</tspan><tspan x="0" y="16.900000000000002" font-weight="300" fill-opacity="0.5">77</tspan></text></g><g transform="translate(332.7054720588709,449.6166590144359)" fill="silver"><path id="O-circle-55" d="M-3.418847082462246e-14,186.11336671888202A186.11336671888202,186.11336671888202,0,1,1,3.418847082462246e-14,-186.11336671888202A186.11336671888202,186.11336671888202,0,1,1,-3.418847082462246e-14,186.11336671888202Z"/><text fill="#000"><tspan x="0" y="-2.5999999999999996">Derecho</tspan><tspan x="0" y="10.4" font-weight="300" fill-opacity="0.5">115</tspan></text></g></svg>