<svg text-anchor="middle" style="width: 70%; height: auto; background: rgb(255, 255, 255); font: 14px sans-serif;" viewBox="75.13984680175781 3.82037353515625 813.4570922851562 877.0811157226562" xmlns="http://www.w3.org/2000/svg" xmlns:xlink="http://www.w3.org/1999/xlink"><g transform="translate(122.06172532255772,543.737965271904)" fill="silver"><path id="O-circle-5" d="M-7.515844912130798e-15,40.91435406716789A40.91435406716789,40.91435406716789,0,1,1,7.515844912130798e-15,-40.91435406716789A40.91435406716789,40.91435406716789,0,1,1,-7.515844912130798e-15,40.91435406716789Z"/><text fill="#000"><tspan x="0" y="-9.1">Comercio y</tspan><tspan x="0" y="3.9000000000000004">Mercadotecnia</tspan><tspan x="0" y="16.900000000000002" font-weight="300" fill-opacity="0.5">7</tspan></text></g><g transform="translate(133.7702500557474,324.189986920344)" fill="silver"><path id="O-circle-6" d="M-7.515844912130798e-15,40.91435406716789A40.91435406716789,40.91435406716789,0,1,1,7.515844912130798e-15,-40.91435406716789A40.91435406716789,40.91435406716789,0,1,1,-7.515844912130798e-15,40.91435406716789Z"/><text fill="#000"><tspan x="0" y="-9.1">Comercio y</tspan><tspan x="0" y="3.9000000000000004">Mercadotecnia</tspan><tspan x="0" y="16.900000000000002" font-weight="300" fill-opacity="0.5">7</tspan></text></g><g transform="translate(699.8705566795129,780.5538893698211)" fill="silver"><path id="O-circle-7" d="M-7.515844912130798e-15,40.91435406716789A40.91435406716789,40.91435406716789,0,1,1,7.515844912130798e-15,-40.91435406716789A40.91435406716789,40.91435406716789,0,1,1,-7.515844912130798e-15,40.91435406716789Z"/><text fill="#000"><tspan x="0" y="-2.5999999999999996">Arquitectura</tspan><tspan x="0" y="10.4" font-weight="300" fill-opacity="0.5">7</tspan></text></g><g transform="translate(841.4719289934286,562.9695491671291)" fill="silver"><path id="O-circle-8" d="M-8.034776180949012e-15,43.739284320143774A43.739284320143774,43.739284320143774,0,1,1,8.034776180949012e-15,-43.739284320143774A43.739284320143774,43.739284320143774,0,1,1,-8.034776180949012e-15,43.739284320143774Z"/><text fill="#000"><tspan x="0" y="-9.1">Administración</tspan><tspan x="0" y="3.9000000000000004">Pública</tspan><tspan x="0" y="16.900000000000002" font-weight="300" fill-opacity="0.5">8</tspan></text></g><g transform="translate(430.67041955037456,833.5089429612144)" fill="silver"><path id="O-circle-9" d="M-8.522167084297795e-15,46.39251682053013A46.39251682053013,46.39251682053013,0,1,1,8.522167084297795e-15,-46.39251682053013A46.39251682053013,46.39251682053013,0,1,1,-8.522167084297795e-15,46.39251682053013Z"/><text fill="#000"><tspan x="0" y="-2.5999999999999996">Sociología</tspan><tspan x="0" y="10.4" font-weight="300" fill-opacity="0.5">9</tspan></text></g><g transform="translate(638.5590395540482,114.88197410149309)" fill="silver"><path id="O-circle-10" d="M-8.522167084297795e-15,46.39251682053013A46.39251682053013,46.39251682053013,0,1,1,8.522167084297795e-15,-46.39251682053013A46.39251682053013,46.39251682053013,0,1,1,-8.522167084297795e-15,46.39251682053013Z"/><text fill="#000"><tspan x="0" y="-9.1">Relaciones</tspan><tspan x="0" y="3.9000000000000004">Internacionales</tspan><tspan x="0" y="16.900000000000002" font-weight="300" fill-opacity="0.5">9</tspan></text></g><g transform="translate(826.7123947794813,305.81451160958125)" fill="silver"><path id="O-circle-11" d="M-8.522167084297795e-15,46.39251682053013A46.39251682053013,46.39251682053013,0,1,1,8.522167084297795e-15,-46.39251682053013A46.39251682053013,46.39251682053013,0,1,1,-8.522167084297795e-15,46.39251682053013Z"/><text fill="#000"><tspan x="0" y="-2.5999999999999996">No tiene</tspan><tspan x="0" y="10.4" font-weight="300" fill-opacity="0.5">9</tspan></text></g><g transform="translate(502.7760655639403,68.58078862168236)" fill="silver"><path id="O-circle-12" d="M-1.171259834924063e-14,63.76041569642991A63.76041569642991,63.76041569642991,0,1,1,1.171259834924063e-14,-63.76041569642991A63.76041569642991,63.76041569642991,0,1,1,-1.171259834924063e-14,63.76041569642991Z"/><text fill="#000"><tspan x="0" y="-2.5999999999999996">Psicología</tspan><tspan x="0" y="10.4" font-weight="300" fill-opacity="0.5">17</tspan></text></g><g transform="translate(165.67601245143965,653.4123836729567)" fill="silver"><path id="O-circle-13" d="M-1.3623625849937803e-14,74.163564871238A74.163564871238,74.163564871238,0,1,1,1.3623625849937803e-14,-74.163564871238A74.163564871238,74.163564871238,0,1,1,-1.3623625849937803e-14,74.163564871238Z"/><text fill="#000"><tspan x="0" y="-2.5999999999999996">Medicina</tspan><tspan x="0" y="10.4" font-weight="300" fill-opacity="0.5">23</tspan></text></g><g transform="translate(188.71075767492215,217.92944630990522)" fill="silver"><path id="O-circle-14" d="M-1.3916640572847914e-14,75.75866272918974A75.75866272918974,75.75866272918974,0,1,1,1.3916640572847914e-14,-75.75866272918974A75.75866272918974,75.75866272918974,0,1,1,-1.3916640572847914e-14,75.75866272918974Z"/><text fill="#000"><tspan x="0" y="-2.5999999999999996">Comunicación</tspan><tspan x="0" y="10.4" font-weight="300" fill-opacity="0.5">24</tspan></text></g><g transform="translate(764.2278168793962,669.2559358473569)" fill="silver"><path id="O-circle-15" d="M-1.5559277169659778e-14,84.70075987347401A84.70075987347401,84.70075987347401,0,1,1,1.5559277169659778e-14,-84.70075987347401A84.70075987347401,84.70075987347401,0,1,1,-1.5559277169659778e-14,84.70075987347401Z"/><text fill="#000"><tspan x="0" y="-2.5999999999999996">Economía</tspan><tspan x="0" y="10.4" font-weight="300" fill-opacity="0.5">30</tspan></text></g><g transform="translate(731.3074602181953,211.65716591672185)" fill="silver"><path id="O-circle-16" d="M-1.5559277169659778e-14,84.70075987347401A84.70075987347401,84.70075987347401,0,1,1,1.5559277169659778e-14,-84.70075987347401A84.70075987347401,84.70075987347401,0,1,1,-1.5559277169659778e-14,84.70075987347401Z"/><text fill="#000"><tspan x="0" y="-9.1">Ciencias</tspan><tspan x="0" y="3.9000000000000004">Políticas</tspan><tspan x="0" y="16.900000000000002" font-weight="300" fill-opacity="0.5">30</tspan></text></g><g transform="translate(318.8716277911295,737.8363285300528)" fill="silver"><path id="O-circle-17" d="M-1.796630572459814e-14,97.80401302703214A97.80401302703214,97.80401302703214,0,1,1,1.796630572459814e-14,-97.80401302703214A97.80401302703214,97.80401302703214,0,1,1,-1.796630572459814e-14,97.80401302703214Z"/><text fill="#000"><tspan x="0" y="-2.5999999999999996">Otras</tspan><tspan x="0" y="10.4" font-weight="300" fill-opacity="0.5">40</tspan></text></g><g transform="translate(355.0222355673672,148.7796287096146)" fill="silver"><path id="O-circle-18" d="M-1.8627862249704272e-14,101.40535901275761A101.40535901275761,101.40535901275761,0,1,1,1.8627862249704272e-14,-101.40535901275761A101.40535901275761,101.40535901275761,0,1,1,-1.8627862249704272e-14,101.40535901275761Z"/><text fill="#000"><tspan x="0" y="-2.5999999999999996">Ingenieria</tspan><tspan x="0" y="10.4" font-weight="300" fill-opacity="0.5">43</tspan></text></g><g transform="translate(543.3200776825713,231.73479964019904)" fill="silver"><path id="O-circle-19" d="M-1.8627862249704272e-14,101.40535901275761A101.40535901275761,101.40535901275761,0,1,1,1.8627862249704272e-14,-101.40535901275761A101.40535901275761,101.40535901275761,0,1,1,-1.8627862249704272e-14,101.40535901275761Z"/><text fill="#000"><tspan x="0" y="-2.5999999999999996">Docencia</tspan><tspan x="0" y="10.4" font-weight="300" fill-opacity="0.5">43</tspan></text></g><g transform="translate(546.9196921537283,695.3485353306125)" fill="silver"><path id="O-circle-20" d="M-2.410432854284703e-14,131.2178529604313A131.2178529604313,131.2178529604313,0,1,1,2.410432854284703e-14,-131.2178529604313A131.2178529604313,131.2178529604313,0,1,1,-2.410432854284703e-14,131.2178529604313Z"/><text fill="#000"><tspan x="0" y="-9.1">Administración</tspan><tspan x="0" y="3.9000000000000004">y Contaduría</tspan><tspan x="0" y="16.900000000000002" font-weight="300" fill-opacity="0.5">72</tspan></text></g><g transform="translate(683.0993997070459,445.108883071754)" fill="silver"><path id="O-circle-21" d="M-2.7687936647583612e-14,150.72610686259927A150.72610686259927,150.72610686259927,0,1,1,2.7687936647583612e-14,-150.72610686259927A150.72610686259927,150.72610686259927,0,1,1,-2.7687936647583612e-14,150.72610686259927Z"/><text fill="#000"><tspan x="0" y="-9.1">Sin</tspan><tspan x="0" y="3.9000000000000004">datos</tspan><tspan x="0" y="16.900000000000002" font-weight="300" fill-opacity="0.5">95</tspan></text></g><g transform="translate(336.89550058028624,445.108883071754)" fill="silver"><path id="O-circle-22" d="M-3.536670818559731e-14,192.5273921712012A192.5273921712012,192.5273921712012,0,1,1,3.536670818559731e-14,-192.5273921712012A192.5273921712012,192.5273921712012,0,1,1,-3.536670818559731e-14,192.5273921712012Z"/><text fill="#000"><tspan x="0" y="-2.5999999999999996">Derecho</tspan><tspan x="0" y="10.4" font-weight="300" fill-opacity="0.5">155</tspan></text></g></svg>