<svg text-anchor="middle" style="width: 70%; height: auto; background: rgb(255, 255, 255); font: 14px sans-serif;" viewBox="130.21200561523438 7.8247222900390625 772.7314453125 883.5816650390625" xmlns="http://www.w3.org/2000/svg" xmlns:xlink="http://www.w3.org/1999/xlink"><g transform="translate(833.5191041385691,554.980030565929)" fill="silver"><path id="O-circle-23" d="M-8.612520022891647e-15,46.88437530934372A46.88437530934372,46.88437530934372,0,1,1,8.612520022891647e-15,-46.88437530934372A46.88437530934372,46.88437530934372,0,1,1,-8.612520022891647e-15,46.88437530934372Z"/><text fill="#000"><tspan x="0" y="-9.1">Relaciones</tspan><tspan x="0" y="3.9000000000000004">Internacionales</tspan><tspan x="0" y="16.900000000000002" font-weight="300" fill-opacity="0.5">2</tspan></text></g><g transform="translate(665.194600246415,134.95991119431795)" fill="silver"><path id="O-circle-24" d="M-1.0548139727793914e-14,57.42139820851716A57.42139820851716,57.42139820851716,0,1,1,1.0548139727793914e-14,-57.42139820851716A57.42139820851716,57.42139820851716,0,1,1,-1.0548139727793914e-14,57.42139820851716Z"/><text fill="#000"><tspan x="0" y="-2.5999999999999996">Sociología</tspan><tspan x="0" y="10.4" font-weight="300" fill-opacity="0.5">3</tspan></text></g><g transform="translate(844.4940701277324,370.6266872881203)" fill="silver"><path id="O-circle-25" d="M-1.0548139727793914e-14,57.42139820851716A57.42139820851716,57.42139820851716,0,1,1,1.0548139727793914e-14,-57.42139820851716A57.42139820851716,57.42139820851716,0,1,1,-1.0548139727793914e-14,57.42139820851716Z"/><text fill="#000"><tspan x="0" y="-2.5999999999999996">Psicología</tspan><tspan x="0" y="10.4" font-weight="300" fill-opacity="0.5">3</tspan></text></g><g transform="translate(510.31425213167114,832.9849472563492)" fill="silver"><path id="O-circle-26" d="M-1.0548139727793914e-14,57.42139820851716A57.42139820851716,57.42139820851716,0,1,1,1.0548139727793914e-14,-57.42139820851716A57.42139820851716,57.42139820851716,0,1,1,-1.0548139727793914e-14,57.42139820851716Z"/><text fill="#000"><tspan x="0" y="-2.5999999999999996">Arquitectura</tspan><tspan x="0" y="10.4" font-weight="300" fill-opacity="0.5">3</tspan></text></g><g transform="translate(537.0304866269124,82.95543063844491)" fill="silver"><path id="O-circle-27" d="M-1.3617589833071556e-14,74.13070632584379A74.13070632584379,74.13070632584379,0,1,1,1.3617589833071556e-14,-74.13070632584379A74.13070632584379,74.13070632584379,0,1,1,-1.3617589833071556e-14,74.13070632584379Z"/><text fill="#000"><tspan x="0" y="-2.5999999999999996">Otras</tspan><tspan x="0" y="10.4" font-weight="300" fill-opacity="0.5">5</tspan></text></g><g transform="translate(223.13368256850347,721.8037308357707)" fill="silver"><path id="O-circle-28" d="M-1.3617589833071556e-14,74.13070632584379A74.13070632584379,74.13070632584379,0,1,1,1.3617589833071556e-14,-74.13070632584379A74.13070632584379,74.13070632584379,0,1,1,-1.3617589833071556e-14,74.13070632584379Z"/><text fill="#000"><tspan x="0" y="-2.5999999999999996">Comunicación</tspan><tspan x="0" y="10.4" font-weight="300" fill-opacity="0.5">5</tspan></text></g><g transform="translate(222.13712484680653,206.22925185247308)" fill="silver"><path id="O-circle-29" d="M-1.3617589833071556e-14,74.13070632584379A74.13070632584379,74.13070632584379,0,1,1,1.3617589833071556e-14,-74.13070632584379A74.13070632584379,74.13070632584379,0,1,1,-1.3617589833071556e-14,74.13070632584379Z"/><text fill="#000"><tspan x="0" y="-9.1">Administración</tspan><tspan x="0" y="3.9000000000000004">Pública</tspan><tspan x="0" y="16.900000000000002" font-weight="300" fill-opacity="0.5">5</tspan></text></g><g transform="translate(759.2632935216275,670.7588348005213)" fill="silver"><path id="O-circle-30" d="M-1.6112549581195502e-14,87.71263460024386A87.71263460024386,87.71263460024386,0,1,1,1.6112549581195502e-14,-87.71263460024386A87.71263460024386,87.71263460024386,0,1,1,-1.6112549581195502e-14,87.71263460024386Z"/><text fill="#000"><tspan x="0" y="-2.5999999999999996">Medicina</tspan><tspan x="0" y="10.4" font-weight="300" fill-opacity="0.5">7</tspan></text></g><g transform="translate(752.8097972647646,254.34121183615468)" fill="silver"><path id="O-circle-31" d="M-1.6112549581195502e-14,87.71263460024386A87.71263460024386,87.71263460024386,0,1,1,1.6112549581195502e-14,-87.71263460024386A87.71263460024386,87.71263460024386,0,1,1,-1.6112549581195502e-14,87.71263460024386Z"/><text fill="#000"><tspan x="0" y="-2.5999999999999996">Economía</tspan><tspan x="0" y="10.4" font-weight="300" fill-opacity="0.5">7</tspan></text></g><g transform="translate(384.6040486983381,754.720891367002)" fill="silver"><path id="O-circle-32" d="M-1.6112549581195502e-14,87.71263460024386A87.71263460024386,87.71263460024386,0,1,1,1.6112549581195502e-14,-87.71263460024386A87.71263460024386,87.71263460024386,0,1,1,-1.6112549581195502e-14,87.71263460024386Z"/><text fill="#000"><tspan x="0" y="-2.5999999999999996">Docencia</tspan><tspan x="0" y="10.4" font-weight="300" fill-opacity="0.5">7</tspan></text></g><g transform="translate(388.515555015619,167.4077981629701)" fill="silver"><path id="O-circle-33" d="M-1.7225040045783293e-14,93.76875061868743A93.76875061868743,93.76875061868743,0,1,1,1.7225040045783293e-14,-93.76875061868743A93.76875061868743,93.76875061868743,0,1,1,-1.7225040045783293e-14,93.76875061868743Z"/><text fill="#000"><tspan x="0" y="-9.1">Administración</tspan><tspan x="0" y="3.9000000000000004">y Contaduría</tspan><tspan x="0" y="16.900000000000002" font-weight="300" fill-opacity="0.5">8</tspan></text></g><g transform="translate(562.7204184098048,257.61177866042976)" fill="silver"><path id="O-circle-34" d="M-1.8269913933874808e-14,99.45677913879624A99.45677913879624,99.45677913879624,0,1,1,1.8269913933874808e-14,-99.45677913879624A99.45677913879624,99.45677913879624,0,1,1,-1.8269913933874808e-14,99.45677913879624Z"/><text fill="#000"><tspan x="0" y="-9.1">Ciencias</tspan><tspan x="0" y="3.9000000000000004">Políticas</tspan><tspan x="0" y="16.900000000000002" font-weight="300" fill-opacity="0.5">9</tspan></text></g><g transform="translate(563.856074536008,676.695650303)" fill="silver"><path id="O-circle-35" d="M-1.9258180228763766e-14,104.83665027430528A104.83665027430528,104.83665027430528,0,1,1,1.9258180228763766e-14,-104.83665027430528A104.83665027430528,104.83665027430528,0,1,1,-1.9258180228763766e-14,104.83665027430528Z"/><text fill="#000"><tspan x="0" y="-2.5999999999999996">Ingenieria</tspan><tspan x="0" y="10.4" font-weight="300" fill-opacity="0.5">10</tspan></text></g><g transform="translate(675.4976591905655,463.79818711347366)" fill="silver"><path id="O-circle-36" d="M-2.435988524516641e-14,132.60903885172831A132.60903885172831,132.60903885172831,0,1,1,2.435988524516641e-14,-132.60903885172831A132.60903885172831,132.60903885172831,0,1,1,-2.435988524516641e-14,132.60903885172831Z"/><text fill="#000"><tspan x="0" y="-9.1">Sin</tspan><tspan x="0" y="3.9000000000000004">datos</tspan><tspan x="0" y="16.900000000000002" font-weight="300" fill-opacity="0.5">16</tspan></text></g><g transform="translate(335.5762675691308,463.79818711347366)" fill="silver"><path id="O-circle-37" d="M-3.754110442900529e-14,204.36425400446274A204.36425400446274,204.36425400446274,0,1,1,3.754110442900529e-14,-204.36425400446274A204.36425400446274,204.36425400446274,0,1,1,-3.754110442900529e-14,204.36425400446274Z"/><text fill="#000"><tspan x="0" y="-2.5999999999999996">Derecho</tspan><tspan x="0" y="10.4" font-weight="300" fill-opacity="0.5">38</tspan></text></g></svg>