<?xml version="1.0" encoding="utf-8"?>
<!-- Generator: Adobe Illustrator 23.0.1, SVG Export Plug-In . SVG Version: 6.00 Build 0)  -->
<svg version="1.1" id="Layer_1" xmlns="http://www.w3.org/2000/svg" xmlns:xlink="http://www.w3.org/1999/xlink" x="0px" y="0px"
	 viewBox="0 0 468.5 418.5" style="enable-background:new 0 0 468.5 418.5;" xml:space="preserve">
<style type="text/css">
	.st0{fill:#FFFFCC;stroke:#000000;stroke-width:0.5;}
	.st1{font-family:'ArialMT';}
	.st2{font-size:12px;}
	.st3{fill:#800026;stroke:#000000;stroke-width:0.5;}
	.st4{fill:#FED976;stroke:#000000;stroke-width:0.5;}
	.st5{fill:#FD8D3C;stroke:#000000;stroke-width:0.5;}
	.st6{fill:#FC4E2A;stroke:#000000;stroke-width:0.5;}
	.st7{fill:#FFEDA0;stroke:#000000;stroke-width:0.5;}
	.st8{fill:#BD0026;stroke:#000000;stroke-width:0.5;}
	.st9{fill:#FEB24C;stroke:#000000;stroke-width:0.5;}
</style>
<path class="st0" d="M43.7,116.2h27L84,140.1l-13.3,23.8h-27L30,140.1L43.7,116.2z"/>
<text transform="matrix(1 0 0 1 44.7314 145.0355)" class="st1 st2">BCS</text>
<path class="st3" d="M70.7,67.8L84,92.1l-13.3,24.1h-27L30,92.1l13.7-24.3H70.7z"/>
<text transform="matrix(1 0 0 1 48.7334 97.019)" class="st1 st2">BC</text>
<path class="st4" d="M70.7,116.2L84,92.1h27l13.7,24.1L111,140.1H84L70.7,116.2z"/>
<text transform="matrix(1 0 0 1 87.569 121.1151)" class="st1 st2">SIN</text>
<path class="st5" d="M70.7,67.8L84,43.3h27l13.7,24.5L111,92.1H84L70.7,67.8z"/>
<text transform="matrix(1 0 0 1 84.569 72.721)" class="st1 st2">SON</text>
<path class="st0" d="M111,140.1l13.7-23.9h27l13.3,23.9l-13.3,23.8h-27L111,140.1z"/>
<text transform="matrix(1 0 0 1 126.1419 145.0355)" class="st1 st2">NAY</text>
<path class="st0" d="M111,92.1l13.7-24.3h27l13.3,24.3l-13.3,24.1h-27L111,92.1z"/>
<text transform="matrix(1 0 0 1 124.3665 97.019)" class="st1 st2">DGO</text>
<path class="st5" d="M164.9,281.6h27l13.7,23.4l-13.7,23.4h-27l-13.3-23.4L164.9,281.6z"/>
<text transform="matrix(1 0 0 1 164.8691 309.9361)" class="st1 st2">GRO</text>
<path class="st6" d="M164.9,234.8h27l13.7,23.4l-13.7,23.4h-27l-13.3-23.4L164.9,234.8z"/>
<text transform="matrix(1 0 0 1 163.2051 263.1844)" class="st1 st2">MICH</text>
<path class="st3" d="M164.9,187.5h27l13.7,23.8l-13.7,23.5h-27l-13.3-23.5L164.9,187.5z"/>
<text transform="matrix(1 0 0 1 166.1992 216.1682)" class="st1 st2">COL</text>
<path class="st4" d="M151.6,163.9l13.3-23.8h27l13.7,23.8l-13.7,23.6h-27L151.6,163.9z"/>
<text transform="matrix(1 0 0 1 168.1973 168.8058)" class="st1 st2">JAL</text>
<path class="st6" d="M151.6,116.2l13.3-24.1h27l13.7,24.1l-13.7,23.9h-27L151.6,116.2z"/>
<text transform="matrix(1 0 0 1 166.5361 121.1151)" class="st1 st2">ZAC</text>
<path class="st3" d="M151.6,67.8l13.3-24.5h27l13.7,24.5l-13.7,24.3h-27L151.6,67.8z"/>
<text transform="matrix(1 0 0 1 163.8701 72.721)" class="st1 st2">CHIH</text>
<path class="st6" d="M191.9,281.6l13.7-23.4h27l13.3,23.4l-13.3,23.4h-27L191.9,281.6z"/>
<text transform="matrix(1 0 0 1 205.0007 286.5645)" class="st1 st2">MOR</text>
<path class="st7" d="M191.9,234.8l13.7-23.5h27l13.3,23.5l-13.3,23.4h-27L191.9,234.8z"/>
<text transform="matrix(1 0 0 1 205.9968 239.7733)" class="st1 st2">MEX</text>
<path class="st8" d="M191.9,187.5l13.7-23.6h27l13.3,23.6l-13.3,23.8h-27L191.9,187.5z"/>
<text transform="matrix(1 0 0 1 206.1081 192.5901)" class="st1 st2">GTO</text>
<path class="st0" d="M191.9,140.1l13.7-23.9h27l13.3,23.9l-13.3,23.8h-27L191.9,140.1z"/>
<text transform="matrix(1 0 0 1 206.3278 145.0355)" class="st1 st2">AGS</text>
<path class="st0" d="M191.9,92.1l13.7-24.3h27l13.3,24.3l-13.3,24.1h-27L191.9,92.1z"/>
<text transform="matrix(1 0 0 1 201.6638 97.019)" class="st1 st2">COAH</text>
<path class="st4" d="M245.9,328.3h27l13.7,23.4l-13.7,23.5h-27l-13.3-23.5L245.9,328.3z"/>
<text transform="matrix(1 0 0 1 246.8304 356.7455)" class="st1 st2">OAX</text>
<path class="st7" d="M232.6,304.9l13.3-23.4h27l13.7,23.4l-13.7,23.4h-27L232.6,304.9z"/>
<text transform="matrix(1 0 0 1 247.1644 309.9361)" class="st1 st2">PUE</text>
<path class="st7" d="M232.6,258.2l13.3-23.4h27l13.7,23.4l-13.7,23.4h-27L232.6,258.2z"/>
<text transform="matrix(1 0 0 1 241.8353 263.1844)" class="st1 st2">CDMX</text>
<path class="st0" d="M232.6,211.3l13.3-23.8h27l13.7,23.8l-13.7,23.5h-27L232.6,211.3z"/>
<text transform="matrix(1 0 0 1 245.8343 216.1682)" class="st1 st2">QRO</text>
<path class="st7" d="M232.6,163.9l13.3-23.8h27l13.7,23.8l-13.7,23.6h-27L232.6,163.9z"/>
<text transform="matrix(1 0 0 1 248.1605 168.8058)" class="st1 st2">SLP</text>
<path class="st7" d="M232.6,116.2l13.3-24.1h27l13.7,24.1l-13.7,23.9h-27L232.6,116.2z"/>
<text transform="matrix(1 0 0 1 251.8314 121.1151)" class="st1 st2">NL</text>
<path class="st0" d="M272.9,328.3l13.7-23.4h27l13.3,23.4l-13.3,23.4h-27L272.9,328.3z"/>
<text transform="matrix(1 0 0 1 283.294 333.3222)" class="st1 st2">CHPS</text>
<path class="st0" d="M272.9,281.6l13.7-23.4h27l13.3,23.4l-13.3,23.4h-27L272.9,281.6z"/>
<text transform="matrix(1 0 0 1 284.958 286.5645)" class="st1 st2">TLAX</text>
<path class="st0" d="M272.9,234.8l13.7-23.5h27l13.3,23.5l-13.3,23.4h-27L272.9,234.8z"/>
<text transform="matrix(1 0 0 1 286.2969 239.7733)" class="st1 st2">HGO</text>
<path class="st7" d="M272.9,187.5l13.7-23.6h27l13.3,23.6l-13.3,23.8h-27L272.9,187.5z"/>
<text transform="matrix(1 0 0 1 287.627 192.5901)" class="st1 st2">VER</text>
<path class="st7" d="M272.9,140.1l13.7-23.9h27l13.3,23.9l-13.3,23.8h-27L272.9,140.1z"/>
<text transform="matrix(1 0 0 1 287.7442 145.0355)" class="st1 st2">TAM</text>
<path class="st7" d="M313.6,304.9l13.3-23.4h27l13.7,23.4l-13.7,23.4h-27L313.6,304.9z"/>
<text transform="matrix(1 0 0 1 329.2428 309.9361)" class="st1 st2">TAB</text>
<path class="st0" d="M353.9,281.6l13.7-23.4h27l13.3,23.4l-13.3,23.4h-27L353.9,281.6z"/>
<text transform="matrix(1 0 0 1 363.5941 286.5645)" class="st1 st2">CAMP</text>
<path class="st9" d="M394.5,304.9l13.3-23.4h27l13.7,23.4l-13.7,23.4h-27L394.5,304.9z"/>
<text transform="matrix(1 0 0 1 403.0977 309.9361)" class="st1 st2">QROO</text>
<path class="st0" d="M394.5,258.2l13.3-23.4h27l13.7,23.4l-13.7,23.4h-27L394.5,258.2z"/>
<text transform="matrix(1 0 0 1 408.7637 263.1844)" class="st1 st2">YUC</text>
</svg>
