<svg id="Layer_1" data-name="Layer 1" xmlns="http://www.w3.org/2000/svg" viewBox="0 0 685.3 434">
  <title>PresupuestosFechas</title>
  <rect x="154.8" y="398.9" width="127.7" height="13.8" style="fill: #d1d1d1"/>
  <rect x="283.4" y="398.9" width="127.7" height="13.8" style="fill: #eaeaea"/>
  <rect x="411.9" y="398.9" width="127.7" height="13.8" style="fill: #d1d1d1"/>
  <rect x="540.4" y="398.9" width="127.7" height="13.8" style="fill: #eaeaea"/>
  <rect x="203.1" y="42.7" width="121.7" height="22.8" style="fill: #63a1ea"/>
  <rect x="203" y="74.1" width="117.5" height="22.8" style="fill: #63a1ea"/>
  <rect x="203" y="105.4" width="18.9" height="22.7" style="fill: #bababa"/>
  <rect x="203" y="136.6" width="373.5" height="22.8" style="fill: #63a1ea"/>
  <rect x="203" y="168" width="88.1" height="22.8" style="fill: #63a1ea"/>
  <rect x="190.4" y="199.3" width="25.2" height="22.8" style="fill: #63a1ea"/>
  <rect x="194.6" y="229.7" width="83.9" height="22.8" style="fill: #63a1ea"/>
  <rect x="203" y="261" width="71.4" height="22.8" style="fill: #63a1ea"/>
  <rect x="211.3" y="292.4" width="197.3" height="22.8" style="fill: #efdb6a"/>
  <rect x="207.1" y="323.7" width="411.3" height="22.8" style="fill: #efdb6a"/>
  <rect x="219.7" y="355.1" width="151.1" height="22.8" style="fill: #efdb6a"/>
  <text transform="translate(18.72 57.77)" style="isolation: isolate;font-size: 12px;font-family: GothamRounded-Book, Gotham Rounded">P<tspan x="8.02" y="0" style="letter-spacing: -0.02197265625em">r</tspan><tspan x="12.61" y="0" style="letter-spacing: -0.000040690104166666664em">esupue</tspan><tspan x="55.55" y="0" style="letter-spacing: -0.010050455729166666em">s</tspan><tspan x="61.4" y="0" style="letter-spacing: -0.014973958333333334em">t</tspan><tspan x="66.07" y="0">o 2009</tspan></text>
  <text transform="translate(18.72 89.11)" style="isolation: isolate;font-size: 12px;font-family: GothamRounded-Book, Gotham Rounded">P<tspan x="8.02" y="0" style="letter-spacing: -0.02197265625em">r</tspan><tspan x="12.61" y="0" style="letter-spacing: -0.000040690104166666664em">esupue</tspan><tspan x="55.55" y="0" style="letter-spacing: -0.010050455729166666em">s</tspan><tspan x="61.4" y="0" style="letter-spacing: -0.014973958333333334em">t</tspan><tspan x="66.07" y="0">o 2</tspan><tspan x="84.61" y="0" style="letter-spacing: -0.0050048828125em">0</tspan><tspan x="93.13" y="0">10</tspan></text>
  <text transform="translate(18.72 120.44)" style="isolation: isolate;font-size: 12px;font-family: GothamRounded-Book, Gotham Rounded">P<tspan x="8.02" y="0" style="letter-spacing: -0.02197265625em">r</tspan><tspan x="12.61" y="0" style="letter-spacing: -0.000040690104166666664em">esupue</tspan><tspan x="55.55" y="0" style="letter-spacing: -0.010050455729166666em">s</tspan><tspan x="61.4" y="0" style="letter-spacing: -0.014973958333333334em">t</tspan><tspan x="66.07" y="0">o 2</tspan><tspan x="84.61" y="0" style="letter-spacing: -0.0050048828125em">0</tspan><tspan x="93.13" y="0">11</tspan></text>
  <text transform="translate(18.72 151.78)" style="isolation: isolate;font-size: 12px;font-family: GothamRounded-Book, Gotham Rounded">P<tspan x="8.02" y="0" style="letter-spacing: -0.02197265625em">r</tspan><tspan x="12.61" y="0" style="letter-spacing: -0.000040690104166666664em">esupue</tspan><tspan x="55.55" y="0" style="letter-spacing: -0.010050455729166666em">s</tspan><tspan x="61.4" y="0" style="letter-spacing: -0.014973958333333334em">t</tspan><tspan x="66.07" y="0">o 2</tspan><tspan x="84.61" y="0" style="letter-spacing: -0.0050048828125em">0</tspan><tspan x="93.13" y="0">12</tspan></text>
  <text transform="translate(18.72 183.11)" style="isolation: isolate;font-size: 12px;font-family: GothamRounded-Book, Gotham Rounded">P<tspan x="8.02" y="0" style="letter-spacing: -0.02197265625em">r</tspan><tspan x="12.61" y="0" style="letter-spacing: -0.000040690104166666664em">esupue</tspan><tspan x="55.55" y="0" style="letter-spacing: -0.010050455729166666em">s</tspan><tspan x="61.4" y="0" style="letter-spacing: -0.014973958333333334em">t</tspan><tspan x="66.07" y="0">o 2</tspan><tspan x="84.61" y="0" style="letter-spacing: -0.0050048828125em">0</tspan><tspan x="93.13" y="0">13</tspan></text>
  <text transform="translate(18.72 214.45)" style="isolation: isolate;font-size: 12px;font-family: GothamRounded-Book, Gotham Rounded">P<tspan x="8.02" y="0" style="letter-spacing: -0.02197265625em">r</tspan><tspan x="12.61" y="0" style="letter-spacing: -0.000040690104166666664em">esupue</tspan><tspan x="55.55" y="0" style="letter-spacing: -0.010050455729166666em">s</tspan><tspan x="61.4" y="0" style="letter-spacing: -0.014973958333333334em">t</tspan><tspan x="66.07" y="0">o 2</tspan><tspan x="84.61" y="0" style="letter-spacing: -0.0050048828125em">0</tspan><tspan x="93.13" y="0">14</tspan></text>
  <text transform="translate(18.72 244.78)" style="isolation: isolate;font-size: 12px;font-family: GothamRounded-Book, Gotham Rounded">P<tspan x="8.02" y="0" style="letter-spacing: -0.02197265625em">r</tspan><tspan x="12.61" y="0" style="letter-spacing: -0.000040690104166666664em">esupue</tspan><tspan x="55.55" y="0" style="letter-spacing: -0.010050455729166666em">s</tspan><tspan x="61.4" y="0" style="letter-spacing: -0.014973958333333334em">t</tspan><tspan x="66.07" y="0">o 2</tspan><tspan x="84.61" y="0" style="letter-spacing: -0.0050048828125em">0</tspan><tspan x="93.13" y="0">15</tspan></text>
  <text transform="translate(18.72 276.12)" style="isolation: isolate;font-size: 12px;font-family: GothamRounded-Book, Gotham Rounded">P<tspan x="8.02" y="0" style="letter-spacing: -0.02197265625em">r</tspan><tspan x="12.61" y="0" style="letter-spacing: -0.000040690104166666664em">esupue</tspan><tspan x="55.55" y="0" style="letter-spacing: -0.010050455729166666em">s</tspan><tspan x="61.4" y="0" style="letter-spacing: -0.014973958333333334em">t</tspan><tspan x="66.07" y="0">o 2</tspan><tspan x="84.61" y="0" style="letter-spacing: -0.0050048828125em">0</tspan><tspan x="93.13" y="0">16</tspan></text>
  <text transform="translate(18.72 307.46)" style="isolation: isolate;font-size: 12px;font-family: GothamRounded-Book, Gotham Rounded">P<tspan x="8.02" y="0" style="letter-spacing: -0.02197265625em">r</tspan><tspan x="12.61" y="0" style="letter-spacing: -0.000040690104166666664em">esupue</tspan><tspan x="55.55" y="0" style="letter-spacing: -0.010050455729166666em">s</tspan><tspan x="61.4" y="0" style="letter-spacing: -0.014973958333333334em">t</tspan><tspan x="66.07" y="0">o 2</tspan><tspan x="84.61" y="0" style="letter-spacing: -0.0050048828125em">0</tspan><tspan x="93.13" y="0">17</tspan></text>
  <text transform="translate(18.72 338.79)" style="isolation: isolate;font-size: 12px;font-family: GothamRounded-Book, Gotham Rounded">P<tspan x="8.02" y="0" style="letter-spacing: -0.02197265625em">r</tspan><tspan x="12.61" y="0" style="letter-spacing: -0.000040690104166666664em">esupue</tspan><tspan x="55.55" y="0" style="letter-spacing: -0.010050455729166666em">s</tspan><tspan x="61.4" y="0" style="letter-spacing: -0.014973958333333334em">t</tspan><tspan x="66.07" y="0">o 2</tspan><tspan x="84.61" y="0" style="letter-spacing: -0.0050048828125em">0</tspan><tspan x="93.13" y="0">18</tspan></text>
  <text transform="translate(18.72 370.13)" style="isolation: isolate;font-size: 12px;font-family: GothamRounded-Book, Gotham Rounded">P<tspan x="8.02" y="0" style="letter-spacing: -0.02197265625em">r</tspan><tspan x="12.61" y="0" style="letter-spacing: -0.000040690104166666664em">esupue</tspan><tspan x="55.55" y="0" style="letter-spacing: -0.010050455729166666em">s</tspan><tspan x="61.4" y="0" style="letter-spacing: -0.014973958333333334em">t</tspan><tspan x="66.07" y="0">o 2</tspan><tspan x="84.61" y="0" style="letter-spacing: -0.0050048828125em">0</tspan><tspan x="93.13" y="0">19</tspan></text>
  <text transform="translate(332.04 57.47)" style="isolation: isolate;font-size: 11px;font-family: GothamRounded-Light, Gotham Rounded">29 días</text>
  <text transform="translate(324.88 88.8)" style="isolation: isolate;font-size: 11px;font-family: GothamRounded-Light, Gotham Rounded">28 días</text>
  <text transform="translate(229.81 120.14)" style="isolation: isolate;font-size: 11px;font-family: GothamRounded-Light, Gotham Rounded">Sin p<tspan x="27.08" y="0" style="letter-spacing: -0.024991122159090908em">r</tspan><tspan x="31.21" y="0">esupue</tspan><tspan x="70.27" y="0" style="letter-spacing: -0.009987571022727272em">s</tspan><tspan x="75.62" y="0" style="letter-spacing: -0.015003551136363636em">t</tspan><tspan x="79.86" y="0">o</tspan></text>
  <text transform="translate(583.04 151.48)" style="isolation: isolate;font-size: 11px;font-family: GothamRounded-Light, Gotham Rounded"><tspan style="letter-spacing: -0.004971590909090909em">8</tspan><tspan x="6.88" y="0">9 días</tspan></text>
  <text transform="translate(301.04 182.81)" style="isolation: isolate;font-size: 11px;font-family: GothamRounded-Light, Gotham Rounded">21 días</text>
  <text transform="translate(221.87 214.15)" style="isolation: isolate;font-size: 11px;font-family: GothamRounded-Light, Gotham Rounded">6 días</text>
  <text transform="translate(282.56 244.48)" style="isolation: isolate;font-size: 11px;font-family: GothamRounded-Light, Gotham Rounded">20 días</text>
  <text transform="translate(278.53 275.82)" style="isolation: isolate;font-size: 11px;font-family: GothamRounded-Light, Gotham Rounded">17 días</text>
  <text transform="translate(418.04 307.15)" style="isolation: isolate;font-size: 11px;font-family: GothamRounded-Light, Gotham Rounded"><tspan style="letter-spacing: -0.039994673295454544em">4</tspan><tspan x="6.86" y="0">7 días</tspan></text>
  <text transform="translate(625.04 338.49)" style="isolation: isolate;font-size: 11px;font-family: GothamRounded-Light, Gotham Rounded">98 días</text>
  <text transform="translate(379.04 369.83)" style="isolation: isolate;font-size: 11px;font-family: GothamRounded-Light, Gotham Rounded">36 días <tspan x="42.15" y="0" style="letter-spacing: -0.02001953125em">*</tspan><tspan x="46.66" y="0" style="letter-spacing: -0.02996271306818182em">e</tspan><tspan x="52.76" y="0" style="letter-spacing: -0.00004438920454545455em">x</tspan><tspan x="59.02" y="0" style="letter-spacing: -0.014959161931818182em">t</tspan><tspan x="63.26" y="0">empo</tspan><tspan x="94.44" y="0" style="letter-spacing: -0.024991122159090908em">r</tspan><tspan x="98.57" y="0">áneo</tspan></text>
  <text transform="translate(215.58 19.72)" style="isolation: isolate;font-size: 9px;font-family: GothamRounded-Book, Gotham Rounded"><tspan style="letter-spacing: -0.014973958333333334em">F</tspan><tspan x="5.77" y="0" style="letter-spacing: -0.00005425347222222222em">echa lími</tspan><tspan x="45.35" y="0" style="letter-spacing: -0.014973958333333334em">t</tspan><tspan x="48.85" y="0">e:</tspan></text>
  <text transform="translate(215.58 30.52)" style="isolation: isolate;font-size: 9px;font-family: GothamRounded-Book, Gotham Rounded">15-Sept</text>
  <text transform="translate(608.81 47.55)" style="isolation: isolate;font-size: 9px;font-family: GothamRounded-Book, Gotham Rounded">F<tspan x="5.9" y="0" style="letter-spacing: -0.009982638888888888em">P</tspan><tspan x="11.83" y="0" style="letter-spacing: -0.039984809027777776em">V</tspan><tspan x="18.16" y="0">-</tspan><tspan x="21.83" y="0" style="letter-spacing: -0.10004340277777778em">P</tspan><tspan x="26.95" y="0">J</tspan></text>
  <text transform="translate(608.81 63.55)" style="isolation: isolate;font-size: 9px;font-family: GothamRounded-Book, Gotham Rounded">Cambiemos</text>
  <g style="opacity: 0.7200000286102295">
    <text transform="translate(187.39 409.08)" style="isolation: isolate;font-size: 11px;font-family: GothamRounded-Book, Gotham Rounded">Septiemb<tspan x="52.47" y="0" style="letter-spacing: -0.022017045454545456em">r</tspan><tspan x="56.68" y="0" style="letter-spacing: 0.00004438920454545455em">e</tspan></text>
  </g>
  <g style="opacity: 0.7200000286102295">
    <text transform="translate(323.99 409.08)" style="isolation: isolate;font-size: 11px;font-family: GothamRounded-Book, Gotham Rounded">Octub<tspan x="34.15" y="0" style="letter-spacing: -0.022017045454545456em">r</tspan><tspan x="38.37" y="0" style="letter-spacing: 0.00004438920454545455em">e</tspan></text>
  </g>
  <g style="opacity: 0.7200000286102295">
    <text transform="translate(443.82 409.08)" style="isolation: isolate;font-size: 11px;font-family: GothamRounded-Book, Gotham Rounded">N<tspan x="8.69" y="0" style="letter-spacing: -0.025967684659090908em">o</tspan><tspan x="15.51" y="0">viemb</tspan><tspan x="49.1" y="0" style="letter-spacing: -0.02197265625em">r</tspan><tspan x="53.32" y="0">e</tspan></text>
  </g>
  <g style="opacity: 0.7200000286102295">
    <text transform="translate(573.49 409.08)" style="isolation: isolate;font-size: 11px;font-family: GothamRounded-Book, Gotham Rounded">Diciemb<tspan x="44.95" y="0" style="letter-spacing: -0.022017045454545456em">r</tspan><tspan x="49.16" y="0" style="letter-spacing: 0.00004438920454545455em">e</tspan></text>
  </g>
  <line x1="212.4" y1="398.9" x2="212.4" y2="19.7" style="fill: none;stroke: #5e5e5e;stroke-miterlimit: 10;stroke-dasharray: 2,2"/>
  <g>
    <path d="M19.7,63.8V60.6H54.8v3.2Z" style="fill: #76bf68"/>
    <path d="M19.7,95.3V92.1H58.8v3.2Z" style="fill: #76bf68"/>
    <path d="M19.7,158.2V155h8.7v3.2Z" style="fill: #76bf68"/>
    <path d="M19.7,189.6v-3.2H58.8v3.2Z" style="fill: #76bf68"/>
    <path d="M19.7,221v-3.2H165V221Z" style="fill: #76bf68"/>
    <path d="M19.7,251.5v-3.2H63.8v3.2Z" style="fill: #76bf68"/>
    <path d="M19.7,282.9v-3.2H62.2v3.2Z" style="fill: #76bf68"/>
    <path d="M19.7,314.4v-3.2H37.1v3.2Z" style="fill: #76bf68"/>
    <path d="M19.7,345.8v-3.2h9v3.2Z" style="fill: #76bf68"/>
    <path d="M19.7,377.2V374H45.1v3.2Z" style="fill: #76bf68"/>
  </g>
  <text transform="translate(25.23 410.08)" style="isolation: isolate;font-size: 9px;fill: #448e35;font-family: GothamRounded-Light, Gotham Rounded"><tspan style="letter-spacing: -0.010036892361111112em">P</tspan><tspan x="5.92" y="0">áginas por día</tspan></text>
  <rect x="594.1" y="38.9" width="10.7" height="10.7" style="fill: #63a1ea"/>
  <rect x="594.1" y="54.9" width="10.7" height="10.7" style="fill: #efdb6a"/>
  <g>
    <line x1="21.7" y1="412.7" x2="21.7" y2="398.9" style="fill: none;stroke: #76bf68;stroke-miterlimit: 10"/>
    <polygon points="24.1 400.5 21.7 391.9 19.4 400.5 24.1 400.5" style="fill: #76bf68"/>
  </g>
  <g style="isolation: isolate">
    <text transform="translate(19.28 73.49)" style="isolation: isolate;font-size: 9px;fill: #448e35;font-family: GothamRounded-Light, Gotham Rounded">223</text>
    <text transform="translate(19.28 104.79)" style="isolation: isolate;font-size: 9px;fill: #448e35;font-family: GothamRounded-Light, Gotham Rounded">250</text>
    <text transform="translate(19.28 167.39)" style="isolation: isolate;font-size: 9px;fill: #448e35;font-family: GothamRounded-Light, Gotham Rounded;letter-spacing: -0.030002170138888888em">5<tspan x="5.17" y="0" style="letter-spacing: 0.00005425347222222222em">7</tspan></text>
    <text transform="translate(19.28 198.69)" style="isolation: isolate;font-size: 9px;fill: #448e35;font-family: GothamRounded-Light, Gotham Rounded;letter-spacing: -0.030002170138888888em">2<tspan x="5.04" y="0" style="letter-spacing: -0.010036892361111112em">4</tspan><tspan x="10.93" y="0" style="letter-spacing: 0.00005425347222222222em">9</tspan></text>
    <text transform="translate(19.28 229.99)" style="isolation: isolate;font-size: 9px;fill: #448e35;font-family: GothamRounded-Light, Gotham Rounded"><tspan style="letter-spacing: -0.009982638888888888em">9</tspan><tspan x="5.69" y="0" style="letter-spacing: -0.030002170138888888em">2</tspan><tspan x="10.73" y="0">4</tspan></text>
    <text transform="translate(19.28 261.29)" style="isolation: isolate;font-size: 9px;fill: #448e35;font-family: GothamRounded-Light, Gotham Rounded">280</text>
    <text transform="translate(19.28 292.59)" style="isolation: isolate;font-size: 9px;fill: #448e35;font-family: GothamRounded-Light, Gotham Rounded"><tspan style="letter-spacing: -0.015028211805555556em">2</tspan><tspan x="5.17" y="0" style="letter-spacing: -0.019965277777777776em">7</tspan><tspan x="10.28" y="0">0</tspan></text>
    <text transform="translate(19.28 323.89)" style="isolation: isolate;font-size: 9px;fill: #448e35;font-family: GothamRounded-Light, Gotham Rounded">111</text>
    <text transform="translate(19.28 355.19)" style="isolation: isolate;font-size: 9px;fill: #448e35;font-family: GothamRounded-Light, Gotham Rounded">58</text>
    <text transform="translate(19.28 386.49)" style="isolation: isolate;font-size: 9px;fill: #448e35;font-family: GothamRounded-Light, Gotham Rounded">162</text>
  </g>
</svg>
