<?xml version="1.0" encoding="utf-8"?>
<!-- Generator: Adobe Illustrator 21.0.0, SVG Export Plug-In . SVG Version: 6.00 Build 0)  -->
<svg version="1.1" id="Layer_1" xmlns="http://www.w3.org/2000/svg" xmlns:xlink="http://www.w3.org/1999/xlink" x="0px" y="0px"
	 viewBox="0 0 685.3 434" style="enable-background:new 0 0 685.3 434;" xml:space="preserve">
<style type="text/css">
	.st0{fill:#D1D1D1;}
	.st1{fill:#EAEAEA;}
	.st2{fill:#63A1EA;}
	.st3{fill:#BABABA;}
	.st4{fill:#EFDB6A;}
	.st5{font-family:'GothamRounded-Book';}
	.st6{font-size:12px;}
	.st7{font-family:'GothamRounded-Light';}
	.st8{font-size:11px;}
	.st9{font-size:9px;}
	.st10{opacity:0.72;}
	.st11{fill:none;stroke:#5E5E5E;stroke-miterlimit:10;stroke-dasharray:2,2;}
	.st12{fill:#76BF68;}
	.st13{fill:#448E35;}
	.st14{fill:none;stroke:#76BF68;stroke-miterlimit:10;}
</style>
<rect x="154.8" y="398.9" class="st0" width="127.7" height="13.8"/>
<rect x="283.4" y="398.9" class="st1" width="127.7" height="13.8"/>
<rect x="411.9" y="398.9" class="st0" width="127.7" height="13.8"/>
<rect x="540.4" y="398.9" class="st1" width="127.7" height="13.8"/>
<rect x="203.1" y="42.7" class="st2" width="121.7" height="22.8"/>
<rect x="203" y="74.1" class="st2" width="117.5" height="22.8"/>
<rect x="203" y="105.4" class="st3" width="18.9" height="22.7"/>
<rect x="203" y="136.6" class="st2" width="373.5" height="22.8"/>
<rect x="203" y="168" class="st2" width="88.1" height="22.8"/>
<rect x="190.4" y="199.3" class="st2" width="25.2" height="22.8"/>
<rect x="194.6" y="229.7" class="st2" width="83.9" height="22.8"/>
<rect x="203" y="261" class="st2" width="71.4" height="22.8"/>
<rect x="211.3" y="292.4" class="st4" width="197.3" height="22.8"/>
<rect x="207.1" y="323.7" class="st4" width="411.3" height="22.8"/>
<rect x="219.7" y="355.1" class="st4" width="151.1" height="22.8"/>
<g>
	<text transform="matrix(1 0 0 1 18.7163 57.7711)" class="st5 st6">Presupuesto 2009</text>
</g>
<g>
	<text transform="matrix(1 0 0 1 18.7163 89.1069)" class="st5 st6">Presupuesto 2010</text>
</g>
<g>
	<text transform="matrix(1 0 0 1 18.7162 120.4424)" class="st5 st6">Presupuesto 2011</text>
</g>
<g>
	<text transform="matrix(1 0 0 1 18.7163 151.7787)" class="st5 st6">Presupuesto 2012</text>
</g>
<g>
	<text transform="matrix(1 0 0 1 18.7163 183.1142)" class="st5 st6">Presupuesto 2013</text>
</g>
<g>
	<text transform="matrix(1 0 0 1 18.7163 214.4501)" class="st5 st6">Presupuesto 2014</text>
</g>
<g>
	<text transform="matrix(1 0 0 1 18.7163 244.7849)" class="st5 st6">Presupuesto 2015</text>
</g>
<g>
	<text transform="matrix(1 0 0 1 18.7163 276.1212)" class="st5 st6">Presupuesto 2016</text>
</g>
<g>
	<text transform="matrix(1 0 0 1 18.7163 307.4568)" class="st5 st6">Presupuesto 2017</text>
</g>
<g>
	<text transform="matrix(1 0 0 1 18.7163 338.7923)" class="st5 st6">Presupuesto 2018</text>
</g>
<g>
	<text transform="matrix(1 0 0 1 18.7163 370.1285)" class="st5 st6">Presupuesto 2019</text>
</g>
<text transform="matrix(1 0 0 1 332.0439 57.4675)" class="st7 st8">29 días</text>
<text transform="matrix(1 0 0 1 324.8777 88.8032)" class="st7 st8">28 días</text>
<text transform="matrix(1 0 0 1 229.8102 120.1388)" class="st7 st8">Se prorroga el presupuesto 2010</text>
<text transform="matrix(1 0 0 1 583.0442 151.4752)" class="st7 st8">89 días</text>
<text transform="matrix(1 0 0 1 301.0443 182.8107)" class="st7 st8">21 días</text>
<text transform="matrix(1 0 0 1 221.8721 214.1468)" class="st7 st8">6 días</text>
<text transform="matrix(1 0 0 1 282.5555 244.4827)" class="st7 st8">20 días</text>
<text transform="matrix(1 0 0 1 278.5339 275.818)" class="st7 st8">17 días</text>
<text transform="matrix(1 0 0 1 418.0443 307.1537)" class="st7 st8">47 días</text>
<text transform="matrix(1 0 0 1 625.0442 338.4893)" class="st7 st8">98 días</text>
<text transform="matrix(1 0 0 1 379.0443 369.8253)" class="st7 st8">36 días *extemporáneo</text>
<text transform="matrix(1 0 0 1 215.5762 19.7199)" class="st5 st9">Fecha límite:</text>
<text transform="matrix(1 0 0 1 215.5762 30.5201)" class="st5 st9">15-Sept</text>
<text transform="matrix(1 0 0 1 608.8052 47.5536)" class="st5 st9">FPV-PJ</text>
<text transform="matrix(1 0 0 1 608.8052 63.5537)" class="st5 st9">Cambiemos</text>
<g class="st10">
	<text transform="matrix(1 0 0 1 187.3878 409.078)" class="st5 st8">Septiembre</text>
</g>
<g class="st10">
	<text transform="matrix(1 0 0 1 323.9931 409.078)" class="st5 st8">Octubre</text>
</g>
<g class="st10">
	<text transform="matrix(1 0 0 1 443.8235 409.078)" class="st5 st8">Noviembre</text>
</g>
<g class="st10">
	<text transform="matrix(1 0 0 1 573.4935 409.078)" class="st5 st8">Diciembre</text>
</g>
<g>
	<g>
		<line class="st11" x1="212.4" y1="398.9" x2="212.4" y2="19.7"/>
	</g>
</g>
<g>
	<path class="st12" d="M19.7,63.8v-3.2h35.1v3.2H19.7z"/>
	<path class="st12" d="M19.7,95.3v-3.2h39.1v3.2H19.7z"/>
	<path class="st12" d="M19.7,158.2V155h8.7v3.2H19.7z"/>
	<path class="st12" d="M19.7,189.6v-3.2h39.1v3.2H19.7z"/>
	<path class="st12" d="M19.7,221v-3.2H165v3.2H19.7z"/>
	<path class="st12" d="M19.7,251.5v-3.2h44.1v3.2H19.7z"/>
	<path class="st12" d="M19.7,282.9v-3.2h42.5v3.2H19.7z"/>
	<path class="st12" d="M19.7,314.4v-3.2h17.4v3.2H19.7z"/>
	<path class="st12" d="M19.7,345.8v-3.2h9v3.2H19.7z"/>
	<path class="st12" d="M19.7,377.2V374h25.4v3.2H19.7z"/>
</g>
<g>
	<text transform="matrix(1 0 0 1 25.2333 410.078)" class="st13 st7 st9">Páginas por día</text>
</g>
<rect x="594.1" y="38.9" class="st2" width="10.7" height="10.7"/>
<rect x="594.1" y="54.9" class="st4" width="10.7" height="10.7"/>
<g>
	<g>
		<line class="st14" x1="21.7" y1="412.7" x2="21.7" y2="398.9"/>
		<g>
			<polygon class="st12" points="24.1,400.5 21.7,391.9 19.4,400.5 			"/>
		</g>
	</g>
</g>
<g>
	<text transform="matrix(1 0 0 1 19.2802 73.4886)" class="st13 st7 st9">223</text>
	<text transform="matrix(1 0 0 1 19.2802 104.7886)" class="st13 st7 st9">250</text>
	<text transform="matrix(1 0 0 1 19.2802 167.3886)" class="st13 st7 st9">57</text>
	<text transform="matrix(1 0 0 1 19.2802 198.6886)" class="st13 st7 st9">249</text>
	<text transform="matrix(1 0 0 1 19.2802 229.9886)" class="st13 st7 st9">924</text>
	<text transform="matrix(1 0 0 1 19.2802 261.2886)" class="st13 st7 st9">280</text>
	<text transform="matrix(1 0 0 1 19.2802 292.5886)" class="st13 st7 st9">270</text>
	<text transform="matrix(1 0 0 1 19.2802 323.8886)" class="st13 st7 st9">111</text>
	<text transform="matrix(1 0 0 1 19.2802 355.1886)" class="st13 st7 st9">58</text>
	<text transform="matrix(1 0 0 1 19.2802 386.4886)" class="st13 st7 st9">162</text>
</g>
</svg>
