<svg
   xmlns="http://www.w3.org/2000/svg"
   viewBox="-5 -5 900 700"
   id="mapaSenadoMexico"
   version="1.1">
  <g transform="translate(-8.9227964,-21.9)" id="MEX-2707">
    <title>Baja California Sur</title>
    <polygon class="banca" points="92.6,191.1 64.8,191.1 50.8,215.2 64.8,239.3 92.6,239.3 106.5,215.2 " />
    <polygon class="banca" points="92.6,239.3 64.8,239.3 50.8,263.4 64.8,287.5 92.6,287.5 106.5,263.4 " />
    <polygon class="banca" points="92.6,142.9 64.8,142.9 50.8,167 64.8,191.1 92.6,191.1 106.5,167 " />
  </g>
  <g transform="translate(-8.9227964,-21.9)" id="MEX-2728">
    <title>Guanajuato</title>
    <polygon class="banca" points="384.9,263.4 357.1,263.4 343.2,287.5 357.1,311.6 384.9,311.6 398.8,287.5 " />
    <polygon class="banca" points="426.6,287.5 398.8,287.5 384.9,311.6 398.8,335.7 426.6,335.7 440.6,311.6 " />
    <polygon class="banca" points="384.9,311.6 357.1,311.6 343.2,335.7 357.1,359.8 384.9,359.8 398.8,335.7 " />
  </g>
  <g transform="translate(-8.9227964,-21.9)" id="MEX-2734">
    <title>Veracruz</title>
    <polygon class="banca" points="551.9,456.2 565.8,480.3 593.6,480.3 607.5,456.2 593.6,432.1 565.8,432.1 " />
    <polygon class="banca" points="551.9,504.4 565.8,528.5 593.6,528.5 607.5,504.4 593.6,480.3 565.8,480.3 " />
    <polygon class="banca" points="510.1,432.1 524,456.2 551.9,456.2 565.8,432.1 551.9,408 524,408 " />
  </g>
  <g transform="translate(-8.9227964,-21.9)" id="MEX-2706">
    <title>Baja California</title>
    <polygon class="banca" points="92.6,142.9 106.5,118.8 92.6,94.7 64.8,94.7 50.8,118.8 64.8,142.9 " />
    <polygon class="banca" points="92.6,94.7 106.5,70.6 92.6,46.5 64.8,46.5 50.8,70.6 64.8,94.7 " />
    <polygon class="banca" points="51.2,70.6 65.2,46.5 51.2,22.4 23.4,22.4 9.5,46.5 23.4,70.6 " />
  </g>
  <g transform="translate(-8.9227964,-21.9)" id="MEX-2712">
    <title>Sonora</title>
    <polygon class="banca" points="92.6,46.5 106.5,70.6 134.3,70.6 148.2,46.5 134.3,22.4 106.5,22.4 " />
    <polygon class="banca" points="134.4,70.6 148.3,94.7 176.2,94.7 190.1,70.6 176.2,46.5 148.3,46.5 " />
    <polygon class="banca" points="134.4,118.8 148.3,142.9 176.2,142.9 190.1,118.8 176.2,94.7 148.3,94.7 " />
  </g>
  <g transform="translate(-8.9227964,-21.9)" id="MEX-2711">
    <title>Sinaloa</title>
    <polygon class="banca" points="134.4,167 148.3,191.1 176.2,191.1 190.1,167 176.2,142.9 148.3,142.9 " />
    <polygon class="banca" points="134.4,215.2 148.3,239.3 176.2,239.3 190.1,215.2 176.2,191.1 148.3,191.1 " />
    <polygon class="banca" points="176.2,239.3 190.1,263.4 217.9,263.4 231.8,239.3 217.9,215.2 190.1,215.2 " />
  </g>
  <g transform="translate(-8.9227964,-21.9)" id="MEX-2729">
    <title>Guerrero</title>
    <polygon class="banca" points="426.6,528.5 398.8,528.5 384.9,552.6 398.8,576.7 426.6,576.7 440.6,552.6 " />
    <polygon class="banca" points="343.2,480.3 315.3,480.3 301.4,504.4 315.3,528.5 343.2,528.5 357.1,504.4 " />
    <polygon class="banca" points="384.9,504.4 357.1,504.4 343.2,528.5 357.1,552.6 384.9,552.6 398.8,528.5 " />
  </g>
  <g transform="translate(-8.9227964,-21.9)" id="MEX-2715">
    <title>San Luis Potosí</title>
    <polygon class="banca" points="343.2,191.1 357.1,215.2 384.9,215.2 398.8,191.1 384.9,167 357.1,167 " />
    <polygon class="banca" points="384.9,263.4 398.8,287.5 426.6,287.5 440.6,263.4 426.6,239.3 398.8,239.3 " />
    <polygon class="banca" points="343.2,239.3 357.1,263.4 384.9,263.4 398.8,239.3 384.9,215.2 357.1,215.2 " />
  </g>
  <g transform="translate(-8.9227964,-21.9)" id="MEX-2727">
    <title>Ciudad De México</title>
    <polygon class="banca" points="343.2,480.3 357.1,504.4 384.9,504.4 398.8,480.3 384.9,456.2 357.1,456.2 " />
    <polygon class="banca" points="384.9,504.4 398.8,528.5 426.6,528.5 440.6,504.4 426.6,480.3 398.8,480.3 " />
    <polygon class="banca" points="384.9,456.2 398.8,480.3 426.6,480.3 440.6,456.2 426.6,432.1 398.8,432.1 " />
  </g>
  <g transform="translate(-8.9227964,-21.9)" id="MEX-2720">
    <title>Michoacán</title>
    <polygon class="banca" points="384.9,408 398.8,383.9 384.9,359.8 357.1,359.8 343.2,383.9 357.1,408 " />
    <polygon class="banca" points="343.2,432.1 357.1,408 343.2,383.9 315.3,383.9 301.4,408 315.3,432.1 " />
    <polygon class="banca" points="343.2,383.9 357.1,359.8 343.2,335.7 315.3,335.7 301.4,359.8 315.3,383.9 " />
  </g>
  <g transform="translate(-8.9227964,-21.9)" id="MEX-2718">
    <title>Colima</title>
    <polygon class="banca" points="259.7,383.9 273.6,408 301.4,408 315.3,383.9 301.4,359.8 273.6,359.8 " />
    <polygon class="banca" points="259.7,432.1 273.6,456.2 301.4,456.2 315.3,432.1 301.4,408 273.6,408 " />
    <polygon class="banca" points="217.9,408 231.8,432.1 259.7,432.1 273.6,408 259.7,383.9 231.8,383.9 " />
  </g>
  <g transform="translate(-8.9227964,-21.9)" id="MEX-2722">
    <title>Campeche</title>
    <polygon class="banca" points="635.4,600.8 649.3,624.9 677.1,624.9 691,600.8 677.1,576.7 649.3,576.7 " />
    <polygon class="banca" points="593.6,576.7 607.5,600.8 635.4,600.8 649.3,576.7 635.4,552.6 607.5,552.6 " />
    <polygon class="banca" points="635.4,552.6 649.3,576.7 677.1,576.7 691,552.6 677.1,528.5 649.3,528.5 " />
  </g>
  <g transform="translate(-8.9227964,-21.9)" id="MEX-2710">
    <title>Durango</title>
    <polygon class="banca" points="217.9,167 231.8,142.9 217.9,118.8 190.1,118.8 176.2,142.9 190.1,167 " />
    <polygon class="banca" points="217.9,215.2 231.8,191.1 217.9,167 190.1,167 176.2,191.1 190.1,215.2 " />
    <polygon class="banca" points="259.7,239.3 273.6,215.2 259.7,191.1 231.8,191.1 217.9,215.2 231.8,239.3 " />
  </g>
  <g transform="translate(-8.9227964,-21.9)" id="MEX-2713">
    <title>Zacatecas</title>
    <polygon class="banca" points="259.7,191.1 273.6,167 259.7,142.9 231.8,142.9 217.9,167 231.8,191.1 " />
    <polygon class="banca" points="301.4,215.2 315.3,191.1 301.4,167 273.6,167 259.7,191.1 273.6,215.2 " />
    <polygon class="banca" points="301.4,263.4 315.3,239.3 301.4,215.2 273.6,215.2 259.7,239.3 273.6,263.4 " />
  </g>
  <g transform="translate(-8.9227964,-21.9)" id="MEX-2731">
    <title>Estado De México</title>
    <polygon class="banca" points="301.4,456.2 315.3,480.3 343.2,480.3 357.1,456.2 343.2,432.1 315.3,432.1 " />
    <polygon class="banca" points="343.2,432.1 357.1,456.2 384.9,456.2 398.8,432.1 384.9,408 357.1,408 " />
    <polygon class="banca" points="384.9,408 398.8,432.1 426.6,432.1 440.6,408 426.6,383.9 398.8,383.9 " />
  </g>
  <g transform="translate(-8.9227964,-21.9)" id="MEX-2732">
    <title>Morelos</title>
    <polygon class="banca" points="426.6,576.7 440.6,600.8 468.4,600.8 482.3,576.7 468.4,552.6 440.6,552.6 " />
    <polygon class="banca" points="426.6,528.5 440.6,552.6 468.4,552.6 482.3,528.5 468.4,504.4 440.6,504.4 " />
    <polygon class="banca" points="426.6,480.3 440.6,504.4 468.4,504.4 482.3,480.3 468.4,456.2 440.6,456.2 " />
  </g>
  <g transform="translate(-8.9227964,-21.9)" id="MEX-2714">
    <title>Nuevo León</title>
    <polygon class="banca" points="343.2,142.9 357.1,167 343.2,191.1 315.3,191.1 301.4,167 315.3,142.9 " />
    <polygon class="banca" points="384.9,70.6 398.8,94.7 384.9,118.8 357.1,118.8 343.2,94.7 357.1,70.6 " />
    <polygon class="banca" points="343.2,94.7 357.1,118.8 343.2,142.9 315.3,142.9 301.4,118.8 315.3,94.7 " />
  </g>
  <g transform="translate(-8.9227964,-21.9)" id="MEX-2716">
    <title>Tamaulipas</title>
    <polygon class="banca" points="426.6,142.9 440.6,167 426.6,191.1 398.8,191.1 384.9,167 398.8,142.9 " />
    <polygon class="banca" points="384.9,118.8 398.8,142.9 384.9,167 357.1,167 343.2,142.9 357.1,118.8 " />
    <polygon class="banca" points="426.6,191.1 440.6,215.2 426.6,239.3 398.8,239.3 384.9,215.2 398.8,191.1 " />
  </g>
  <g transform="translate(-8.9227964,-21.9)" id="MEX-2723">
    <title>Oaxaca</title>
    <polygon class="banca" points="468.4,600.8 482.3,624.9 468.4,649 440.6,649 426.6,624.9 440.6,600.8 " />
    <polygon class="banca" points="426.6,576.7 440.6,600.8 426.6,624.9 398.8,624.9 384.9,600.8 398.8,576.7 " />
    <polygon class="banca" points="510.1,576.7 524,600.8 510.1,624.9 482.3,624.9 468.4,600.8 482.3,576.7 " />
  </g>
  <g transform="translate(-8.9227964,-21.9)" id="MEX-2735">
    <title>Chiapas</title>
    <polygon class="banca" points="510.1,624.9 524,600.8 551.9,600.8 565.8,624.9 551.9,649 524,649 " />
    <polygon class="banca" points="551.9,649 565.8,624.9 593.6,624.9 607.5,649 593.6,673.1 565.8,673.1 " />
    <polygon class="banca" points="551.9,600.8 565.8,576.7 593.6,576.7 607.5,600.8 593.6,624.9 565.8,624.9 " />
  </g>
  <g transform="translate(-8.9227964,-21.9)" id="MEX-2730">
    <title>Hidalgo</title>
    <polygon class="banca" points="482.3,383.9 510.1,383.9 524,359.8 510.1,335.7 482.3,335.7 468.4,359.8 " />
    <polygon class="banca" points="482.3,432.1 510.1,432.1 524,408 510.1,383.9 482.3,383.9 468.4,408 " />
    <polygon class="banca" points="440.6,408 468.4,408 482.3,383.9 468.4,359.8 440.6,359.8 426.6,383.9 " />
  </g>
  <g transform="translate(-8.9227964,-21.9)" id="MEX-2736">
    <title>Quintana Roo</title>
    <polygon class="banca" points="816.3,528.5 802.3,504.4 774.5,504.4 760.6,528.5 774.5,552.6 802.3,552.6 " />
    <polygon class="banca" points="774.5,552.6 760.6,528.5 732.8,528.5 718.9,552.6 732.8,576.7 760.6,576.7 " />
    <polygon class="banca" points="732.8,576.7 718.9,552.6 691,552.6 677.1,576.7 691,600.8 718.9,600.8 " />
  </g>
  <g transform="translate(-8.9227964,-21.9)" id="MEX-2724">
    <title>Puebla</title>
    <polygon class="banca" points="565.8,528.5 551.9,504.4 524,504.4 510.1,528.5 524,552.6 551.9,552.6 " />
    <polygon class="banca" points="524,504.4 510.1,480.3 482.3,480.3 468.4,504.4 482.3,528.5 510.1,528.5 " />
    <polygon class="banca" points="524,552.6 510.1,528.5 482.3,528.5 468.4,552.6 482.3,576.7 510.1,576.7 " />
  </g>
  <g transform="translate(-8.9227964,-21.9)" id="MEX-2717">
    <title>Aguascalientes</title>
    <polygon class="banca" points="301.4,311.6 273.6,311.6 259.7,287.5 273.6,263.4 301.4,263.4 315.3,287.5 " />
    <polygon class="banca" points="343.2,287.5 315.3,287.5 301.4,263.4 315.3,239.3 343.2,239.3 357.1,263.4 " />
    <polygon class="banca" points="343.2,239.3 315.3,239.3 301.4,215.2 315.3,191.1 343.2,191.1 357.1,215.2 " />
  </g>
  <g transform="translate(-8.9227964,-21.9)" id="MEX-2737">
    <title>Yucatán</title>
    <polygon class="banca" points="718.9,504.4 732.8,480.3 760.6,480.3 774.5,504.4 760.6,528.5 732.8,528.5 " />
    <polygon class="banca" points="760.6,480.3 774.5,456.2 802.3,456.2 816.3,480.3 802.3,504.4 774.5,504.4 " />
    <polygon class="banca" points="677.1,528.5 691,504.4 718.9,504.4 732.8,528.5 718.9,552.6 691,552.6 " />
  </g>
  <g transform="translate(-8.9227964,-21.9)" id="MEX-2725">
    <title>Tabasco</title>
    <polygon class="banca" points="551.9,552.6 565.8,576.7 551.9,600.8 524,600.8 510.1,576.7 524,552.6 " />
    <polygon class="banca" points="593.6,528.5 607.5,552.6 593.6,576.7 565.8,576.7 551.9,552.6 565.8,528.5 " />
    <polygon class="banca" points="635.4,504.4 649.3,528.5 635.4,552.6 607.5,552.6 593.6,528.5 607.5,504.4 " />
  </g>
  <g transform="translate(-8.9227964,-21.9)" id="MEX-2719">
    <title>Jalisco</title>
    <polygon class="banca" points="259.7,335.7 273.6,311.6 301.4,311.6 315.3,335.7 301.4,359.8 273.6,359.8 " />
    <polygon class="banca" points="301.4,311.6 315.3,287.5 343.2,287.5 357.1,311.6 343.2,335.7 315.3,335.7 " />
    <polygon class="banca" points="217.9,359.8 231.8,335.7 259.7,335.7 273.6,359.8 259.7,383.9 231.8,383.9 " />
  </g>
  <g transform="translate(-8.9227964,-21.9)" id="MEX-2733">
    <title>Querétaro</title>
    <polygon class="banca" points="426.6,287.5 440.6,263.4 468.4,263.4 482.3,287.5 468.4,311.6 440.6,311.6 " />
    <polygon class="banca" points="426.6,335.7 440.6,311.6 468.4,311.6 482.3,335.7 468.4,359.8 440.6,359.8 " />
    <polygon class="banca" points="384.9,359.8 398.8,335.7 426.6,335.7 440.6,359.8 426.6,383.9 398.8,383.9 " />
  </g>
  <g transform="translate(-8.9227964,-21.9)" id="MEX-2708">
    <title>Coahuila</title>
    <polygon class="banca" points="301.4,70.6 315.3,46.5 343.2,46.5 357.1,70.6 343.2,94.7 315.3,94.7 " />
    <polygon class="banca" points="259.7,142.9 273.6,118.8 301.4,118.8 315.3,142.9 301.4,167 273.6,167 " />
    <polygon class="banca" points="259.7,94.7 273.6,70.6 301.4,70.6 315.3,94.7 301.4,118.8 273.6,118.8 " />
  </g>
  <g transform="translate(-8.9227964,-21.9)" id="MEX-2721">
    <title>Nayarit</title>
    <polygon class="banca" points="231.8,287.5 217.9,263.4 190.1,263.4 176.2,287.5 190.1,311.6 217.9,311.6 " />
    <polygon class="banca" points="273.6,311.6 259.7,287.5 231.8,287.5 217.9,311.6 231.8,335.7 259.7,335.7 " />
    <polygon class="banca" points="273.6,263.4 259.7,239.3 231.8,239.3 217.9,263.4 231.8,287.5 259.7,287.5 " />
  </g>
  <g transform="translate(-8.9227964,-21.9)" id="MEX-2726">
    <title>Tlaxcala</title>
    <polygon class="banca" points="440.6,408 426.6,432.1 440.6,456.2 468.4,456.2 482.3,432.1 468.4,408 " />
    <polygon class="banca" points="524,456.2 510.1,480.3 524,504.4 551.9,504.4 565.8,480.3 551.9,456.2 " />
    <polygon class="banca" points="482.3,432.1 468.4,456.2 482.3,480.3 510.1,480.3 524,456.2 510.1,432.1 " />
  </g>
  <g transform="translate(-8.9227964,-21.9)" id="MEX-2709">
    <title>Chihuahua</title>
    <polygon class="banca" points="231.8,94.7 217.9,118.8 190.1,118.8 176.2,94.7 190.1,70.6 217.9,70.6 " />
    <polygon class="banca" points="273.6,70.6 259.7,94.7 231.8,94.7 217.9,70.6 231.8,46.5 259.7,46.5 " />
    <polygon class="banca" points="273.6,118.8 259.7,142.9 231.8,142.9 217.9,118.8 231.8,94.7 259.7,94.7 " />
  </g>
  <polygon id="oMEX-2707" class="borde" points="83.7,217.4 97.6,193.3 83.7,169.2 97.6,145.1 83.7,121 55.9,121 41.9,145.1 55.9,169.2 41.9,193.3 55.9,217.4 41.9,241.5 55.9,265.6 83.7,265.6 97.6,241.5 "/>
  <polygon id="oMEX-2728" class="borde" points="417.7,265.6 389.9,265.6 376,241.5 348.2,241.5 334.3,265.6 348.2,289.7 334.3,313.8 348.2,337.9 376,337.9 389.9,313.8 417.7,313.8 431.7,289.7 "/>
  <polygon id="oMEX-2734" class="borde" points="598.6,482.5 584.7,458.4 598.6,434.3 584.7,410.2 556.9,410.2 543,386.1 515.1,386.1 501.2,410.2 515.1,434.3 543,434.3 556.9,458.4 543,482.5 556.9,506.6 584.7,506.6 "/>
  <polygon id="oMEX-2706" class="borde" points="97.6,96.9 83.7,72.8 97.6,48.7 83.7,24.6 56.3,24.6 42.3,0.5 14.5,0.5 0.6,24.6 14.5,48.7 41.9,48.7 55.9,72.8 41.9,96.9 55.9,121 83.7,121 "/>
  <polygon id="oMEX-2712" class="borde" points="181.2,96.9 167.3,72.8 181.2,48.7 167.3,24.6 139.4,24.6 125.5,0.5 97.7,0.5 83.8,24.6 97.7,48.7 125.5,48.7 139.4,72.8 125.5,96.9 139.4,121 167.3,121 "/>
  <polygon id="oMEX-2711" class="borde" points="209,241.5 222.9,217.4 209,193.3 181.2,193.3 167.3,169.2 181.2,145.1 167.3,121 139.4,121 125.5,145.1 139.4,169.2 125.5,193.3 139.4,217.4 167.3,217.4 181.2,241.5 "/>
  <polygon id="oMEX-2729" class="borde" points="417.7,554.8 431.7,530.7 417.7,506.6 389.9,506.6 376,482.5 348.2,482.5 334.3,458.4 306.4,458.4 292.5,482.5 306.4,506.6 334.3,506.6 348.2,530.7 376,530.7 389.9,554.8 "/>
  <polygon id="oMEX-2715" class="borde" points="417.7,265.6 431.7,241.5 417.7,217.4 389.9,217.4 376,193.3 389.9,169.2 376,145.1 348.2,145.1 334.3,169.2 348.2,193.3 334.3,217.4 348.2,241.5 376,241.5 389.9,265.6 "/>
  <polygon id="oMEX-2727" class="borde" points="431.7,434.3 417.7,410.2 389.9,410.2 376,434.3 348.2,434.3 334.3,458.4 348.2,482.5 376,482.5 389.9,506.6 417.7,506.6 431.7,482.5 417.7,458.4 "/>
  <polygon id="oMEX-2720" class="borde" points="376,337.9 348.2,337.9 334.3,313.8 306.4,313.8 292.5,337.9 306.4,362 292.5,386.1 306.4,410.2 334.3,410.2 348.2,386.1 376,386.1 389.9,362 "/>
  <polygon id="oMEX-2718" class="borde" points="306.4,362 292.5,337.9 264.7,337.9 250.8,362 222.9,362 209,386.1 222.9,410.2 250.8,410.2 264.7,434.3 292.5,434.3 306.4,410.2 292.5,386.1 "/>
  <polygon id="oMEX-2722" class="borde" points="682.1,530.7 668.2,506.6 640.4,506.6 626.5,530.7 598.6,530.7 584.7,554.8 598.6,578.9 626.5,578.9 640.4,603 668.2,603 682.1,578.9 668.2,554.8 "/>
  <polygon id="oMEX-2710" class="borde" points="250.8,217.4 264.7,193.3 250.8,169.2 222.9,169.2 209,145.1 222.9,121 209,96.9 181.2,96.9 167.3,121 181.2,145.1 167.3,169.2 181.2,193.3 209,193.3 222.9,217.4 "/>
  <polygon id="oMEX-2713" class="borde" points="306.4,217.4 292.5,193.3 306.4,169.2 292.5,145.1 264.7,145.1 250.8,121 222.9,121 209,145.1 222.9,169.2 250.8,169.2 264.7,193.3 250.8,217.4 264.7,241.5 292.5,241.5 "/>
  <polygon id="oMEX-2731" class="borde" points="417.7,410.2 431.7,386.1 417.7,362 389.9,362 376,386.1 348.2,386.1 334.3,410.2 306.4,410.2 292.5,434.3 306.4,458.4 334.3,458.4 348.2,434.3 376,434.3 389.9,410.2 "/>
  <polygon id="oMEX-2732" class="borde" points="459.5,530.7 473.4,506.6 459.5,482.5 473.4,458.4 459.5,434.3 431.7,434.3 417.7,458.4 431.7,482.5 417.7,506.6 431.7,530.7 417.7,554.8 431.7,578.9 459.5,578.9 473.4,554.8 "/>
  <polygon id="oMEX-2714" class="borde" points="376,96.9 389.9,72.8 376,48.7 348.2,48.7 334.3,72.8 306.4,72.8 292.5,96.9 306.4,121 292.5,145.1 306.4,169.2 334.3,169.2 348.2,145.1 334.3,121 348.2,96.9 "/>
  <polygon id="oMEX-2716" class="borde" points="431.7,193.3 417.7,169.2 431.7,145.1 417.7,121 389.9,121 376,96.9 348.2,96.9 334.3,121 348.2,145.1 376,145.1 389.9,169.2 376,193.3 389.9,217.4 417.7,217.4 "/>
  <polygon id="oMEX-2723" class="borde" points="501.2,603 515.1,578.9 501.2,554.8 473.4,554.8 459.5,578.9 431.7,578.9 417.7,554.8 389.9,554.8 376,578.9 389.9,603 417.7,603 431.7,627.1 459.5,627.1 473.4,603 "/>
  <polygon id="oMEX-2735" class="borde" points="598.6,578.9 584.7,554.8 556.9,554.8 543,578.9 515.1,578.9 501.2,603 515.1,627.1 543,627.1 556.9,651.2 584.7,651.2 598.6,627.1 584.7,603 "/>
  <polygon id="oMEX-2730" class="borde" points="515.1,337.9 501.2,313.8 473.4,313.8 459.5,337.9 431.7,337.9 417.7,362 431.7,386.1 459.5,386.1 473.4,410.2 501.2,410.2 515.1,386.1 501.2,362 "/>
  <polygon id="oMEX-2736" class="borde" points="793.4,530.7 807.4,506.6 793.4,482.5 765.6,482.5 751.7,506.6 723.9,506.6 710,530.7 682.1,530.7 668.2,554.8 682.1,578.9 710,578.9 723.9,554.8 751.7,554.8 765.6,530.7 "/>
  <polygon id="oMEX-2724" class="borde" points="543,482.5 515.1,482.5 501.2,458.4 473.4,458.4 459.5,482.5 473.4,506.6 459.5,530.7 473.4,554.8 501.2,554.8 515.1,530.7 543,530.7 556.9,506.6 "/>
  <polygon id="oMEX-2717" class="borde" points="348.2,241.5 334.3,217.4 348.2,193.3 334.3,169.2 306.4,169.2 292.5,193.3 306.4,217.4 292.5,241.5 264.7,241.5 250.8,265.6 264.7,289.7 292.5,289.7 306.4,265.6 334.3,265.6 "/>
  <polygon id="oMEX-2737" class="borde" points="793.4,482.5 807.4,458.4 793.4,434.3 765.6,434.3 751.7,458.4 723.9,458.4 710,482.5 682.1,482.5 668.2,506.6 682.1,530.7 710,530.7 723.9,506.6 751.7,506.6 765.6,482.5 "/>
  <polygon id="oMEX-2725" class="borde" points="626.5,530.7 640.4,506.6 626.5,482.5 598.6,482.5 584.7,506.6 556.9,506.6 543,530.7 515.1,530.7 501.2,554.8 515.1,578.9 543,578.9 556.9,554.8 584.7,554.8 598.6,530.7 "/>
  <polygon id="oMEX-2719" class="borde" points="334.3,313.8 348.2,289.7 334.3,265.6 306.4,265.6 292.5,289.7 264.7,289.7 250.8,313.8 222.9,313.8 209,337.9 222.9,362 250.8,362 264.7,337.9 292.5,337.9 306.4,313.8 "/>
  <polygon id="oMEX-2733" class="borde" points="473.4,313.8 459.5,289.7 473.4,265.6 459.5,241.5 431.7,241.5 417.7,265.6 431.7,289.7 417.7,313.8 389.9,313.8 376,337.9 389.9,362 417.7,362 431.7,337.9 459.5,337.9 "/>
  <polygon id="oMEX-2708" class="borde" points="334.3,72.8 348.2,48.7 334.3,24.6 306.4,24.6 292.5,48.7 264.7,48.7 250.8,72.8 264.7,96.9 250.8,121 264.7,145.1 292.5,145.1 306.4,121 292.5,96.9 306.4,72.8 "/>
  <polygon id="oMEX-2721" class="borde" points="264.7,241.5 250.8,217.4 222.9,217.4 209,241.5 181.2,241.5 167.3,265.6 181.2,289.7 209,289.7 222.9,313.8 250.8,313.8 264.7,289.7 250.8,265.6 "/>
  <polygon id="oMEX-2726" class="borde" points="543,482.5 556.9,458.4 543,434.3 515.1,434.3 501.2,410.2 473.4,410.2 459.5,386.1 431.7,386.1 417.7,410.2 431.7,434.3 459.5,434.3 473.4,458.4 501.2,458.4 515.1,482.5 "/>
  <polygon id="oMEX-2709" class="borde" points="264.7,48.7 250.8,24.6 222.9,24.6 209,48.7 181.2,48.7 167.3,72.8 181.2,96.9 209,96.9 222.9,121 250.8,121 264.7,96.9 250.8,72.8 "/>
</svg>
